<?xml version="1.0" standalone="no"?>
<!DOCTYPE svg PUBLIC "-//W3C//DTD SVG 20010904//EN"
 "http://www.w3.org/TR/2001/REC-SVG-20010904/DTD/svg10.dtd">
<svg version="1.0" xmlns="http://www.w3.org/2000/svg"
 width="120.240000pt" height="22.320000pt" viewBox="0 0 120.240000 22.320000"
 preserveAspectRatio="xMidYMid meet">
<metadata>
Created by potrace 1.16, written by Peter Selinger 2001-2019
</metadata>
<g transform="translate(0.000000,22.320000) scale(0.000541,-0.000246)"
fill="#000000" stroke="none">
<path d="M5168 90863 l-1838 -3 0 -155 0 -155 -840 0 -840 0 0 -165 0 -165
-330 0 -330 0 0 -170 0 -170 -170 0 -170 0 0 -335 0 -335 -165 0 -165 0 0
-1175 0 -1175 -153 0 -154 0 -6 -3017 c-9 -3929 -9 -53147 0 -57076 l6 -3017
154 0 153 0 0 -1175 0 -1175 165 0 165 0 0 -335 0 -335 170 0 170 0 0 -170 0
-170 330 0 330 0 0 -165 0 -165 840 0 840 0 0 -158 0 -159 2753 -6 c3572 -9
25902 -9 29485 0 l2762 6 0 159 0 158 820 0 820 0 0 165 0 165 335 0 335 0 0
170 0 170 670 0 670 0 0 -170 0 -170 335 0 335 0 0 -165 0 -165 1000 0 1000 0
0 -158 0 -159 2747 -6 c3580 -9 59892 -9 63491 0 l2762 6 0 159 0 158 1485 0
1485 0 0 165 0 165 1005 0 1005 0 0 170 0 170 835 0 835 0 0 164 0 164 665 7
665 7 0 164 0 164 423 0 c232 0 533 3 670 7 l247 6 0 159 0 158 423 0 c232 0
533 3 670 7 l247 6 0 157 0 157 257 6 c141 4 368 7 505 7 l248 0 0 170 0 170
315 0 315 0 0 158 0 159 257 6 c141 4 366 7 500 7 l243 0 0 170 0 170 335 0
335 0 0 165 0 165 505 0 505 0 0 170 0 170 500 0 500 0 0 -170 0 -170 165 0
165 0 0 -1005 0 -1005 170 0 170 0 0 -335 0 -335 165 0 165 0 0 -170 0 -170
335 0 335 0 0 -165 0 -165 835 0 835 0 0 -158 0 -159 2732 -6 c3545 -9 26232
-9 29816 0 l2762 6 0 159 0 158 835 0 835 0 0 165 0 165 335 0 335 0 0 170 0
170 670 0 670 0 0 -170 0 -170 335 0 335 0 0 -165 0 -165 985 0 985 0 0 -158
0 -159 2762 -6 c3589 -9 32601 -9 36171 0 l2747 6 0 159 0 158 835 0 835 0 0
165 0 165 330 0 330 0 0 6020 0 6020 -165 0 -165 0 0 165 0 165 -165 0 -165 0
0 335 0 335 -170 0 -170 0 0 335 0 335 -165 0 -165 0 0 165 0 165 -170 0 -170
0 0 170 0 170 -165 0 -165 0 0 165 0 165 -165 0 -165 0 0 340 0 340 -170 0
-170 0 0 165 0 165 -165 0 -165 0 0 170 0 170 -165 0 -165 0 0 330 0 330 -175
0 -175 0 0 170 0 170 -165 0 -165 0 0 320 0 320 -170 0 -170 0 0 165 0 165
-165 0 -165 0 0 335 0 335 -165 0 -165 0 0 165 0 165 -170 0 -170 0 0 340 0
340 -165 0 -165 0 0 170 0 170 -165 0 -165 0 0 165 0 165 -155 0 -155 0 0 170
0 170 -165 0 -165 0 0 165 0 165 -165 0 -165 0 0 335 0 335 -170 0 -170 0 0
165 0 165 -165 0 -165 0 0 335 0 335 -170 0 -170 0 0 335 0 335 -165 0 -165 0
0 165 0 165 -170 0 -170 0 0 175 0 175 -170 0 -170 0 0 165 0 165 -159 0 -159
0 -7 335 -7 335 -164 0 -164 0 0 165 0 165 -170 0 -170 0 0 170 0 170 -165 0
-165 0 0 320 0 320 -165 0 -165 0 0 165 0 165 -170 0 -170 0 0 335 0 335 -165
0 -165 0 0 165 0 165 -165 0 -165 0 0 340 0 340 -170 0 -170 0 0 170 0 170
-165 0 -165 0 0 335 0 335 -165 0 -165 0 0 165 0 165 -170 0 -170 0 0 165 0
165 -170 0 -170 0 0 170 0 170 -165 0 -165 0 0 165 0 165 -164 0 -164 0 -7
335 -7 335 -164 0 -164 0 0 335 0 335 -165 0 -165 0 0 165 0 165 -170 0 -170
0 0 340 0 340 -165 0 -165 0 0 170 0 170 -165 0 -165 0 0 165 0 165 -155 0
-155 0 0 165 0 165 -165 0 -165 0 0 335 0 335 -170 0 -170 0 0 155 0 155 -165
0 -165 0 0 165 0 165 -165 0 -165 0 0 335 0 335 -170 0 -170 0 0 170 0 170
-165 0 -165 0 0 330 0 330 -170 0 -170 0 0 175 0 175 -170 0 -170 0 0 335 0
335 -165 0 -165 0 0 165 0 165 -170 0 -170 0 0 505 0 505 170 0 170 0 0 165 0
165 165 0 165 0 0 170 0 170 170 0 170 0 0 165 0 165 170 0 170 0 0 335 0 335
165 0 165 0 0 165 0 165 170 0 170 0 0 169 0 169 330 7 330 7 0 164 0 164 170
0 170 0 0 170 0 170 320 0 320 0 0 165 0 165 165 0 165 0 0 170 0 170 165 0
165 0 0 165 0 165 170 0 170 0 0 170 0 170 165 0 165 0 0 150 0 150 165 0 165
0 0 170 0 170 170 0 170 0 0 165 0 165 165 0 165 0 0 165 0 165 170 0 170 0 0
170 0 170 335 0 335 0 0 165 0 165 165 0 165 0 0 175 0 175 170 0 170 0 0 165
0 165 165 0 165 0 0 165 0 165 165 0 165 0 0 170 0 170 170 0 170 0 0 165 0
165 165 0 165 0 0 170 0 170 165 0 165 0 0 165 0 165 335 0 335 0 0 170 0 170
165 0 165 0 0 165 0 165 170 0 170 0 0 165 0 165 170 0 170 0 0 170 0 170 165
0 165 0 0 165 0 165 335 0 335 0 0 170 0 170 170 0 170 0 0 165 0 165 165 0
165 0 0 175 0 175 165 0 165 0 0 165 0 165 155 0 155 0 0 165 0 165 165 0 165
0 0 170 0 170 165 0 165 0 0 165 0 165 170 0 170 0 0 170 0 170 330 0 330 0 0
150 0 150 170 0 170 0 0 170 0 170 165 0 165 0 0 165 0 165 175 0 175 0 0 165
0 165 165 0 165 0 0 170 0 170 165 0 165 0 0 165 0 165 170 0 170 0 0 170 0
170 330 0 330 0 0 170 0 170 170 0 170 0 0 165 0 165 165 0 165 0 0 170 0 170
170 0 170 0 0 165 0 165 165 0 165 0 0 170 0 170 165 0 165 0 0 165 0 165 335
0 335 0 0 170 0 170 165 0 165 0 0 165 0 165 175 0 175 0 0 165 0 165 165 0
165 0 0 170 0 170 170 0 170 0 0 5855 0 5855 -170 0 -170 0 0 165 0 165 -840
0 -840 0 0 153 0 154 -2762 6 c-3592 9 -37263 9 -40816 0 l-2732 -6 0 -154 0
-153 -2010 0 -2010 0 0 153 0 154 -2762 6 c-3584 9 -26271 9 -29816 0 l-2732
-6 0 -154 0 -153 -835 0 -835 0 0 -165 0 -165 -335 0 -335 0 0 -170 0 -170
-165 0 -165 0 0 -335 0 -335 -170 0 -170 0 0 -670 0 -670 -165 0 -165 0 0
-335 0 -335 -335 0 -335 0 0 165 0 165 -242 0 c-134 0 -361 3 -505 7 l-263 6
0 164 0 163 -243 0 c-134 0 -359 3 -500 7 l-257 6 0 157 0 158 -330 7 -330 7
0 164 0 164 -335 0 -335 0 0 163 0 164 -227 6 c-124 4 -343 7 -485 7 l-258 0
0 158 0 159 -257 6 c-141 4 -366 7 -500 7 l-243 0 0 163 0 164 -257 6 c-141 4
-368 7 -505 7 l-248 0 0 165 0 165 -670 0 -670 0 0 170 0 170 -665 0 -665 0 0
165 0 165 -1345 0 -1345 0 0 153 0 154 -2722 6 c-3550 9 -66237 9 -69825 0
l-2753 -6 0 -154 0 -153 -1825 0 -1825 0 0 153 0 154 -2762 6 c-2496 6 -25930
6 -30400 0z m30666 -6130 c-2 -115 -9 -431 -14 -703 -6 -272 -17 -943 -25
-1490 -8 -547 -17 -1087 -19 -1200 -28 -1511 -55 -3699 -58 -4605 -3 -1062 0
-1275 21 -1351 9 -35 73 -77 143 -96 48 -12 48 -12 83 22 20 19 51 62 70 96
38 68 109 138 160 160 52 21 103 71 132 127 31 62 109 145 160 172 71 36 104
68 144 136 48 83 97 133 164 166 67 33 119 85 150 148 30 62 108 139 168 165
52 23 94 67 136 141 37 67 101 128 168 163 58 29 103 77 138 147 32 62 87 116
157 153 71 38 112 79 142 140 32 66 92 126 164 164 68 37 111 80 143 146 32
65 86 119 156 155 72 37 123 89 158 163 30 65 80 113 162 154 63 32 93 64 133
143 32 65 103 134 163 161 52 23 106 79 142 147 36 68 88 120 147 148 77 36
113 70 151 143 44 84 84 125 159 163 74 37 110 73 147 146 35 69 110 146 166
168 56 23 98 67 134 140 36 73 87 123 168 164 70 35 102 68 137 141 35 71 84
121 154 156 80 40 103 64 146 149 43 85 86 127 171 166 71 32 94 55 129 130
15 31 36 69 47 83 25 32 92 78 139 96 54 20 76 46 120 136 43 88 90 133 181
172 49 21 109 77 109 101 0 28 58 118 97 150 21 17 58 39 83 48 60 22 114 75
130 126 25 84 107 165 189 187 48 13 95 62 120 128 12 29 28 64 38 78 21 32
87 77 138 95 58 19 93 55 126 127 46 102 87 142 180 178 63 24 93 57 139 150
44 88 72 114 165 155 69 30 92 53 129 134 40 87 89 136 164 166 65 25 117 70
127 106 9 38 68 125 103 155 17 14 53 34 79 44 63 23 109 67 127 121 28 82
113 164 198 192 45 15 83 56 102 107 31 90 101 160 188 190 55 18 99 64 122
126 28 77 68 122 137 157 34 17 67 31 74 31 22 0 73 66 91 120 27 77 91 141
171 170 74 26 105 58 127 127 29 87 100 165 163 178 62 12 133 63 133 94 0 34
49 118 92 157 27 25 66 48 99 59 30 10 66 29 82 43 25 24 27 32 27 104 l0 78
33015 0 33015 0 0 -40 c0 -27 -5 -43 -15 -46 -8 -4 -15 -19 -15 -35 0 -34 -27
-29 360 -68 200 -21 424 -35 695 -46 667 -25 1020 -53 1239 -96 112 -23 239
-63 276 -87 53 -35 73 -41 197 -61 208 -32 285 -40 533 -56 365 -23 396 -25
535 -41 296 -33 491 -87 585 -163 25 -20 60 -34 110 -44 105 -21 369 -53 605
-72 394 -32 600 -84 712 -178 69 -57 187 -84 518 -117 254 -26 356 -42 462
-74 109 -33 186 -75 233 -128 27 -31 234 -82 395 -98 346 -34 513 -84 621
-185 59 -55 98 -68 294 -100 449 -74 548 -107 638 -209 42 -48 110 -73 262
-96 338 -52 461 -97 568 -207 45 -47 162 -88 335 -118 78 -14 163 -31 189 -39
65 -20 199 -108 221 -145 25 -43 75 -65 202 -91 339 -67 383 -84 489 -198 47
-49 57 -55 173 -92 68 -22 154 -47 191 -55 141 -29 238 -79 322 -166 52 -54
173 -107 302 -134 151 -31 221 -67 312 -158 71 -71 143 -106 302 -147 145 -37
183 -57 268 -144 66 -68 78 -76 186 -119 63 -25 131 -48 150 -52 98 -21 197
-90 232 -166 15 -30 26 -38 90 -58 146 -47 332 -122 371 -151 38 -28 87 -89
87 -109 0 -21 72 -63 132 -77 171 -40 318 -121 379 -210 36 -52 119 -101 239
-140 75 -25 92 -35 145 -89 33 -33 67 -74 76 -91 13 -24 27 -33 78 -47 71 -20
305 -135 338 -166 13 -12 41 -46 63 -75 42 -58 113 -105 190 -125 71 -19 150
-79 187 -142 48 -82 72 -109 97 -109 27 0 118 -30 167 -55 19 -10 63 -45 99
-78 36 -32 75 -63 88 -68 12 -5 27 -20 34 -34 13 -29 102 -88 228 -151 92 -45
126 -77 165 -153 26 -50 92 -100 160 -121 101 -31 149 -72 189 -161 32 -69 48
-84 117 -108 139 -48 213 -108 241 -194 12 -40 18 -44 118 -93 71 -35 121 -68
155 -101 28 -27 65 -60 83 -73 18 -14 40 -39 48 -57 9 -17 34 -44 57 -59 47
-31 181 -135 244 -189 23 -20 48 -50 55 -66 14 -32 143 -145 196 -173 50 -26
101 -75 124 -120 27 -52 122 -148 176 -175 61 -31 110 -78 137 -130 28 -55
111 -141 180 -185 57 -37 106 -89 134 -144 21 -40 118 -138 166 -167 48 -28
83 -65 130 -135 47 -70 143 -173 189 -204 15 -10 49 -46 74 -81 124 -165 183
-236 265 -320 107 -109 155 -170 196 -251 26 -51 42 -68 91 -98 78 -48 125
-105 180 -218 39 -81 50 -95 87 -114 87 -45 147 -113 180 -202 24 -65 82 -136
130 -159 59 -27 105 -81 151 -175 42 -85 70 -119 193 -235 25 -23 52 -55 60
-70 8 -15 31 -56 51 -90 21 -34 56 -100 79 -145 35 -70 51 -90 101 -128 67
-51 118 -121 150 -207 30 -80 73 -138 130 -174 64 -41 89 -76 154 -209 52
-108 124 -225 143 -232 4 -1 30 -28 56 -58 50 -58 106 -161 136 -248 22 -63
71 -134 106 -153 56 -30 109 -106 167 -241 79 -182 111 -235 171 -290 55 -49
101 -128 130 -218 30 -96 82 -182 154 -256 80 -83 124 -166 170 -321 35 -120
63 -167 146 -248 68 -67 102 -135 172 -349 43 -131 50 -143 124 -221 73 -78
97 -126 158 -324 61 -194 73 -219 145 -294 71 -73 99 -128 142 -285 20 -70 42
-149 50 -177 7 -27 29 -76 47 -108 l34 -58 44 33 c66 50 99 105 117 190 27
137 27 1000 -4 6378 -3 531 -9 1372 -14 1869 -5 497 -7 908 -4 912 3 5 0 298
-6 651 -10 631 -45 3693 -57 5076 l-6 702 15014 0 15014 0 -2 -292 c-2 -161
-7 -651 -13 -1088 -6 -437 -15 -1355 -20 -2040 -6 -685 -14 -1661 -20 -2170
-5 -509 -10 -1616 -12 -2460 l-3 -1535 27 -47 c36 -60 77 -108 92 -108 17 0
129 112 176 175 37 50 104 115 118 115 13 0 153 142 192 196 21 27 54 63 75
80 77 61 197 181 237 235 23 31 63 71 90 89 60 41 153 136 213 216 24 34 68
77 97 96 29 19 87 72 128 117 114 125 170 181 236 235 32 27 77 71 99 99 54
68 127 141 208 205 36 30 81 74 99 98 75 102 90 118 131 147 65 47 185 166
223 224 19 28 56 65 82 82 59 38 208 188 221 224 6 15 36 46 68 69 88 66 180
157 229 225 25 34 66 77 92 95 67 45 158 134 205 198 40 56 105 120 120 120
17 0 159 145 193 196 18 28 60 71 91 96 32 24 92 82 133 127 76 83 98 105 270
274 52 51 108 112 124 136 16 24 52 58 80 76 56 36 174 157 219 223 16 23 54
60 85 81 62 42 157 139 212 216 19 28 58 66 85 85 69 48 168 150 210 216 19
30 54 66 76 82 65 42 199 173 220 213 18 36 103 119 122 119 13 0 177 161 177
174 0 27 55 87 117 128 81 54 166 143 195 205 17 35 37 56 87 88 81 53 166
134 210 200 47 69 81 104 116 120 39 17 166 145 208 210 19 28 56 65 83 83 63
42 169 145 201 197 36 56 82 104 123 125 46 24 162 136 183 177 23 43 113 133
135 133 15 0 158 149 185 193 16 26 50 60 80 80 68 45 168 146 219 220 27 39
59 71 99 96 58 37 158 141 211 220 16 23 46 53 69 69 80 53 201 170 231 221
21 39 46 63 96 96 81 52 130 102 191 192 25 37 66 81 90 98 65 45 179 155 203
195 31 51 76 98 133 135 66 43 171 153 179 187 6 26 106 118 128 118 6 0 46
35 89 77 l79 77 -6 73 -7 73 20417 0 20416 0 0 -205 0 -205 -76 0 c-66 0 -80
-3 -110 -26 -19 -15 -34 -34 -34 -44 0 -26 -29 -90 -57 -128 -27 -36 -83 -68
-134 -77 -62 -11 -134 -71 -168 -139 -35 -68 -98 -124 -150 -131 -18 -2 -41
-15 -55 -32 -24 -28 -65 -53 -118 -72 -16 -6 -28 -16 -28 -24 0 -16 -70 -90
-107 -112 -15 -10 -42 -36 -58 -59 -37 -50 -92 -82 -165 -96 -30 -6 -67 -13
-81 -16 -24 -5 -28 -12 -39 -69 -8 -40 -21 -75 -36 -92 -13 -15 -24 -31 -24
-35 0 -17 -94 -60 -161 -74 -41 -8 -80 -21 -87 -28 -7 -6 -20 -41 -29 -77 -27
-110 -75 -154 -197 -182 -84 -19 -106 -40 -130 -122 -13 -43 -29 -71 -57 -97
-35 -33 -129 -78 -165 -78 -8 0 -32 -14 -54 -31 -27 -22 -41 -43 -49 -75 -16
-61 -90 -135 -165 -163 -76 -28 -159 -91 -174 -133 -13 -37 -84 -101 -147
-134 -22 -11 -57 -36 -78 -56 -20 -19 -57 -44 -80 -56 -24 -12 -49 -32 -56
-45 -7 -13 -31 -39 -53 -58 -23 -19 -73 -66 -113 -106 -66 -66 -77 -73 -156
-97 -91 -29 -105 -41 -129 -114 -29 -92 -123 -162 -236 -178 -61 -8 -71 -16
-85 -68 -31 -116 -99 -182 -217 -209 -64 -15 -112 -47 -112 -76 0 -35 -50
-119 -89 -153 -26 -22 -65 -42 -102 -52 -76 -22 -115 -56 -159 -142 -40 -77
-83 -116 -156 -142 -73 -25 -150 -87 -176 -141 -28 -59 -82 -109 -159 -149
-60 -31 -138 -85 -166 -114 -21 -21 -135 -137 -173 -174 -19 -19 -39 -34 -43
-34 -5 0 -23 -11 -40 -24 -18 -13 -55 -35 -82 -49 -53 -26 -123 -94 -149 -144
-34 -66 -135 -133 -244 -163 -33 -8 -43 -17 -48 -38 -8 -34 -47 -110 -71 -139
-20 -23 -115 -73 -178 -93 -54 -17 -73 -36 -101 -98 -37 -85 -60 -109 -136
-147 -40 -19 -78 -35 -85 -35 -24 0 -93 -72 -119 -124 -37 -74 -69 -103 -159
-147 -87 -43 -145 -90 -171 -141 -31 -61 -63 -95 -116 -123 -83 -44 -190 -131
-228 -188 -22 -32 -58 -67 -96 -92 -91 -60 -191 -143 -257 -212 -33 -35 -64
-63 -70 -63 -5 0 -33 -24 -61 -53 -50 -52 -116 -101 -179 -133 -50 -26 -90
-63 -115 -108 -46 -80 -130 -146 -227 -176 -54 -17 -63 -26 -90 -86 -42 -96
-120 -164 -222 -194 -52 -16 -82 -47 -125 -130 -38 -74 -89 -118 -175 -150
-71 -26 -117 -68 -149 -137 -30 -63 -96 -124 -161 -148 -66 -25 -136 -86 -173
-150 -35 -62 -90 -115 -140 -135 -46 -18 -154 -103 -182 -143 -43 -61 -92
-117 -109 -122 -38 -12 -221 -161 -324 -263 -115 -114 -169 -156 -246 -189
-46 -21 -57 -32 -134 -139 -55 -79 -94 -108 -188 -142 l-76 -28 -36 -71 c-51
-102 -134 -171 -227 -188 -40 -8 -82 -46 -93 -85 -21 -77 -130 -179 -208 -196
-49 -10 -103 -59 -130 -117 -37 -81 -71 -114 -164 -158 -89 -42 -144 -90 -167
-145 -23 -52 -76 -104 -140 -136 -90 -45 -163 -106 -195 -163 -33 -58 -57 -82
-123 -122 -96 -58 -210 -146 -218 -168 -13 -34 -195 -190 -281 -240 -100 -59
-113 -70 -160 -143 -50 -76 -106 -121 -207 -162 -42 -18 -81 -36 -87 -40 -5
-5 -19 -32 -30 -60 -30 -77 -78 -127 -159 -166 -39 -19 -78 -34 -86 -34 -24 0
-65 -48 -88 -103 -35 -81 -60 -107 -136 -143 -39 -19 -76 -34 -83 -34 -24 0
-84 -63 -109 -115 -36 -77 -88 -128 -162 -159 -85 -35 -136 -78 -166 -140 -32
-65 -98 -128 -156 -149 -62 -23 -146 -95 -180 -155 -30 -51 -87 -104 -127
-116 -13 -4 -29 -13 -35 -20 -7 -7 -46 -38 -87 -69 -40 -32 -86 -75 -101 -96
-27 -36 -89 -91 -103 -91 -4 0 -33 -25 -64 -56 -32 -30 -83 -70 -114 -89 -64
-37 -104 -74 -177 -161 -55 -66 -122 -114 -210 -150 -31 -12 -60 -29 -64 -36
-4 -7 -14 -30 -24 -50 -29 -66 -93 -128 -168 -164 -39 -19 -76 -34 -83 -34
-19 0 -51 -39 -79 -95 -51 -100 -100 -143 -204 -180 -66 -23 -105 -57 -119
-104 -18 -61 -111 -152 -179 -177 -66 -23 -130 -76 -149 -123 -27 -65 -79
-117 -154 -155 -85 -43 -163 -106 -186 -150 -10 -17 -17 -33 -18 -36 -1 -13
-69 -71 -112 -96 -78 -45 -184 -132 -242 -197 -29 -33 -68 -72 -86 -86 -116
-91 -184 -140 -210 -154 -28 -14 -56 -43 -173 -176 -44 -50 -148 -113 -209
-126 -27 -5 -36 -16 -61 -69 -16 -35 -47 -83 -68 -106 -37 -41 -140 -100 -175
-100 -30 0 -68 -40 -95 -100 -37 -84 -110 -151 -195 -179 -75 -25 -99 -46
-127 -112 -31 -71 -78 -117 -162 -159 -108 -52 -138 -77 -170 -140 -37 -73
-82 -116 -155 -150 -33 -16 -69 -37 -80 -47 -11 -11 -33 -28 -48 -37 -14 -10
-37 -38 -49 -63 -24 -49 -93 -117 -136 -135 -42 -18 -170 -116 -189 -145 -42
-63 -202 -199 -307 -263 -23 -14 -80 -66 -127 -117 -47 -50 -99 -103 -115
-116 -26 -22 -125 -73 -189 -97 -15 -6 -27 -21 -31 -37 -22 -93 -109 -179
-222 -219 -42 -15 -84 -33 -93 -41 -8 -7 -23 -38 -33 -69 -25 -79 -81 -132
-177 -169 -104 -41 -116 -51 -154 -131 -42 -87 -94 -136 -170 -160 -58 -19
-145 -84 -145 -109 0 -7 -18 -39 -40 -72 -37 -57 -113 -113 -151 -113 -26 0
-129 -90 -150 -131 -26 -53 -97 -121 -151 -148 -69 -34 -168 -116 -205 -171
-19 -29 -57 -66 -86 -85 -29 -18 -68 -48 -87 -65 -19 -17 -60 -47 -90 -68 -30
-20 -93 -75 -140 -123 -113 -114 -168 -157 -253 -199 -64 -32 -74 -40 -102
-94 -39 -73 -93 -118 -209 -176 -89 -44 -92 -47 -124 -110 -39 -77 -107 -138
-191 -171 -68 -27 -117 -70 -141 -126 -27 -62 -89 -119 -166 -155 -97 -45
-127 -70 -163 -137 -37 -70 -82 -112 -161 -150 -74 -36 -156 -105 -177 -149
-22 -46 -76 -97 -147 -138 -80 -47 -182 -133 -202 -169 -15 -29 -40 -50 -219
-185 -107 -81 -207 -167 -235 -205 -48 -63 -182 -155 -262 -179 -9 -2 -31 -32
-48 -65 -44 -82 -101 -136 -190 -178 -41 -19 -82 -38 -90 -42 -8 -4 -24 -22
-35 -40 -63 -102 -84 -128 -122 -157 -23 -18 -63 -40 -90 -50 -69 -26 -111
-61 -139 -116 -37 -73 -87 -122 -160 -157 -89 -43 -147 -92 -183 -155 -35 -62
-69 -93 -153 -138 -60 -32 -140 -105 -223 -203 -21 -25 -53 -54 -70 -62 -56
-29 -176 -125 -263 -212 -48 -47 -131 -124 -185 -171 -76 -65 -97 -90 -94
-105 3 -11 21 -83 41 -159 40 -155 99 -276 171 -351 135 -140 197 -230 235
-339 23 -68 41 -91 91 -116 53 -27 113 -93 143 -155 14 -31 26 -60 26 -65 0
-8 67 -110 92 -140 7 -8 32 -28 56 -44 24 -16 51 -41 61 -55 23 -32 161 -271
190 -329 12 -23 38 -53 59 -66 85 -54 134 -125 176 -254 23 -67 53 -103 120
-141 65 -36 94 -72 139 -171 51 -111 108 -195 154 -229 78 -57 189 -227 228
-352 23 -73 30 -81 97 -113 34 -16 70 -43 88 -65 33 -43 80 -137 80 -162 0 -9
18 -43 40 -76 28 -43 54 -67 90 -87 64 -35 92 -73 181 -250 48 -96 86 -156
117 -188 25 -27 50 -48 55 -48 16 0 79 -76 107 -131 16 -31 35 -79 41 -105 14
-58 48 -102 98 -129 75 -40 110 -76 142 -144 76 -165 116 -227 167 -259 37
-23 115 -117 162 -196 26 -43 37 -69 74 -174 21 -59 26 -66 77 -93 95 -52 139
-109 178 -228 21 -64 81 -151 105 -151 29 0 105 -82 141 -152 20 -40 42 -80
50 -88 7 -8 29 -47 49 -85 25 -49 62 -98 125 -161 95 -97 138 -167 164 -268
18 -68 36 -90 98 -122 80 -40 127 -99 159 -199 19 -58 99 -170 136 -190 44
-24 87 -70 123 -135 57 -101 121 -233 133 -272 9 -31 21 -45 57 -65 96 -54
150 -125 184 -239 23 -78 59 -126 116 -152 72 -35 93 -62 179 -233 63 -123 86
-159 115 -179 93 -64 181 -196 223 -335 22 -74 43 -98 109 -129 30 -13 64 -40
83 -64 33 -41 71 -117 72 -141 0 -17 62 -120 89 -146 11 -11 36 -31 57 -45 20
-14 47 -35 59 -48 35 -34 139 -228 170 -314 23 -64 32 -78 57 -89 46 -19 123
-83 147 -123 13 -20 33 -70 46 -111 27 -90 61 -138 118 -166 57 -29 134 -112
147 -157 19 -71 110 -214 171 -270 33 -30 59 -59 59 -65 0 -7 18 -31 40 -55
50 -54 67 -85 105 -197 30 -89 31 -90 83 -118 29 -16 69 -44 88 -63 33 -33 94
-141 94 -165 0 -28 84 -147 117 -164 18 -10 51 -37 71 -59 40 -44 146 -228
186 -324 18 -45 33 -64 71 -89 96 -64 143 -130 180 -254 19 -65 55 -109 112
-138 65 -32 99 -76 166 -211 52 -106 71 -135 128 -190 69 -67 154 -173 182
-226 8 -16 25 -61 37 -99 32 -105 38 -113 106 -146 86 -41 137 -107 164 -215
14 -56 78 -146 120 -166 69 -34 105 -83 194 -261 83 -164 132 -237 161 -237
42 0 142 -150 160 -240 12 -59 48 -103 120 -145 80 -47 102 -74 144 -175 44
-106 94 -182 142 -215 72 -51 168 -192 213 -315 15 -41 31 -85 36 -96 5 -12
35 -36 67 -54 76 -42 137 -119 168 -210 29 -85 78 -156 125 -180 71 -37 125
-115 238 -344 21 -44 51 -85 80 -110 119 -106 139 -135 186 -265 33 -92 52
-116 115 -148 67 -33 111 -87 140 -167 29 -83 98 -182 153 -222 75 -53 238
-321 238 -391 0 -29 29 -64 68 -80 88 -37 138 -98 182 -222 34 -96 68 -146
114 -165 66 -27 104 -74 173 -210 36 -72 75 -148 86 -169 11 -21 32 -46 46
-55 43 -27 127 -116 155 -165 15 -25 39 -81 54 -124 36 -103 51 -123 116 -156
70 -35 118 -91 147 -170 24 -64 106 -207 120 -207 25 0 112 -87 154 -156 49
-79 124 -244 125 -276 0 -10 23 -29 58 -48 101 -54 137 -98 171 -205 27 -86
74 -158 117 -179 66 -31 113 -86 168 -195 83 -165 98 -188 200 -297 101 -107
149 -189 161 -268 8 -53 38 -88 100 -119 28 -14 64 -40 81 -59 33 -34 77 -114
87 -158 10 -43 84 -148 115 -164 16 -8 46 -32 66 -53 54 -54 188 -303 203
-373 4 -20 14 -32 35 -39 80 -28 154 -116 191 -226 30 -87 73 -147 126 -175
54 -28 105 -86 144 -166 58 -120 116 -213 146 -235 31 -23 134 -143 165 -193
11 -17 34 -73 51 -124 32 -94 63 -142 90 -142 19 0 60 -25 99 -59 27 -25 76
-119 89 -171 14 -54 81 -139 137 -172 51 -31 61 -44 132 -168 43 -74 88 -166
101 -205 22 -67 25 -71 78 -98 30 -16 66 -40 81 -54 35 -34 84 -128 98 -188
14 -62 57 -121 107 -146 78 -39 153 -122 153 -172 0 -32 106 -196 164 -252
125 -122 157 -171 206 -309 36 -105 40 -110 99 -141 89 -47 135 -104 170 -209
26 -78 76 -147 131 -180 49 -29 91 -78 125 -146 10 -19 21 -37 26 -40 7 -5 40
-72 92 -191 14 -31 37 -65 51 -75 105 -74 127 -96 161 -165 19 -39 40 -89 46
-112 15 -57 53 -102 112 -135 59 -31 119 -105 142 -172 21 -63 102 -181 158
-230 48 -43 139 -165 175 -236 11 -22 28 -69 37 -105 20 -77 25 -84 87 -115
26 -13 63 -38 82 -55 38 -33 96 -139 96 -175 0 -36 71 -132 115 -155 53 -28
106 -79 129 -126 10 -21 28 -56 40 -78 11 -22 44 -85 71 -140 28 -55 52 -98
55 -97 3 2 37 -26 76 -62 77 -71 124 -147 145 -231 17 -68 51 -109 120 -146
66 -36 103 -78 135 -157 23 -56 86 -176 107 -202 7 -8 36 -33 65 -55 75 -56
145 -163 198 -304 24 -64 48 -117 52 -119 40 -14 132 -76 154 -103 16 -19 41
-71 56 -115 39 -107 74 -157 136 -193 78 -44 110 -85 186 -234 64 -125 77
-144 171 -239 107 -109 140 -161 160 -258 15 -66 38 -95 100 -121 25 -11 62
-37 81 -57 37 -39 88 -126 88 -151 0 -8 18 -45 40 -83 29 -48 52 -74 78 -87
20 -11 54 -37 74 -58 55 -57 144 -216 175 -311 l27 -83 61 -29 c33 -16 74 -44
92 -62 36 -37 76 -120 90 -190 13 -57 47 -101 93 -118 82 -30 140 -91 169
-178 33 -97 87 -176 145 -215 31 -20 68 -56 83 -80 15 -23 38 -55 51 -71 38
-47 71 -121 96 -213 l22 -86 42 -12 c111 -33 170 -95 200 -210 31 -119 54
-149 134 -179 55 -20 121 -88 139 -144 7 -21 32 -77 56 -126 23 -49 43 -94 43
-100 1 -15 48 -48 59 -42 4 3 21 -11 37 -31 16 -20 48 -55 71 -77 52 -51 78
-101 98 -191 8 -38 18 -80 21 -93 5 -23 45 -46 96 -56 42 -7 86 -34 111 -68
24 -32 57 -114 57 -143 0 -8 12 -40 27 -70 26 -52 33 -59 100 -90 40 -20 80
-46 91 -62 41 -60 115 -222 133 -293 22 -84 53 -120 124 -142 22 -7 58 -31 81
-53 41 -41 63 -100 78 -203 9 -62 30 -89 74 -97 21 -3 55 -17 77 -30 22 -14
48 -28 57 -31 42 -15 88 -176 88 -306 l0 -28 -18255 0 -18255 0 0 44 c0 25 5
48 10 51 6 3 10 17 10 30 0 19 -12 29 -63 53 -92 43 -133 98 -161 217 -17 69
-82 215 -97 215 -22 0 -108 84 -133 131 -64 117 -76 147 -97 239 -24 104 -56
165 -91 175 -65 20 -126 91 -170 197 -33 81 -98 282 -98 304 0 7 -17 21 -37
29 -101 42 -148 101 -187 237 -33 115 -89 224 -118 233 -34 11 -65 42 -114
116 -45 67 -74 128 -79 164 -9 67 -40 165 -61 197 -13 21 -39 44 -57 51 -48
20 -95 64 -118 109 -34 67 -105 258 -125 335 l-18 73 -61 29 c-85 41 -130 102
-155 211 -7 30 -32 93 -56 140 -33 65 -54 93 -88 117 -25 18 -51 44 -58 57 -7
14 -30 49 -50 79 -39 57 -88 189 -88 238 0 41 -54 124 -91 139 -36 15 -113 90
-134 129 -19 37 -110 285 -124 339 -9 33 -19 45 -44 56 -41 18 -109 85 -140
139 -14 23 -32 69 -42 101 -29 103 -82 196 -141 249 -92 83 -137 164 -189 340
-22 74 -66 157 -84 157 -15 0 -84 60 -112 99 -16 21 -44 76 -64 122 -19 46
-39 91 -43 99 -5 8 -22 57 -37 109 -26 85 -32 95 -62 107 -42 18 -97 66 -123
109 -12 19 -34 74 -50 122 -36 111 -94 211 -141 245 -73 52 -155 195 -193 336
-29 108 -51 143 -117 184 -84 52 -102 80 -189 308 -67 177 -77 200 -91 200
-19 0 -98 69 -129 111 -15 21 -40 78 -55 126 -31 97 -85 212 -109 232 -9 8
-16 10 -16 5 0 -16 -74 63 -115 125 -29 41 -55 99 -75 165 -64 202 -65 203
-152 256 -26 16 -59 47 -73 68 -29 44 -89 186 -140 330 -18 52 -35 94 -37 95
-118 59 -156 104 -193 229 -38 125 -90 221 -142 258 -79 55 -162 205 -202 365
-21 83 -55 140 -94 156 -44 18 -124 113 -140 166 -9 27 -40 108 -71 182 -31
73 -56 140 -56 147 0 7 -20 25 -45 39 -81 48 -125 112 -170 251 -34 105 -85
193 -134 232 -75 60 -138 171 -187 327 -34 113 -59 152 -122 198 -72 51 -103
103 -183 304 -47 118 -79 185 -95 198 -113 92 -130 117 -180 258 -38 107 -90
194 -158 268 -80 86 -122 158 -158 271 -46 147 -68 181 -161 251 -44 33 -67
76 -162 299 -63 148 -76 171 -111 196 -81 59 -119 115 -154 227 -31 98 -84
190 -149 260 -95 102 -140 181 -185 325 -33 105 -40 115 -140 215 l-81 80 -75
180 c-74 177 -76 181 -146 251 -77 76 -98 109 -143 233 -36 98 -91 192 -138
234 -71 64 -145 191 -184 317 -22 69 -46 116 -83 164 -22 28 -308 64 -340 43
-62 -41 -131 -104 -163 -148 -22 -31 -80 -83 -151 -136 -63 -48 -147 -118
-186 -158 -92 -93 -204 -188 -291 -250 -74 -52 -79 -57 -162 -153 -47 -54
-143 -126 -231 -173 -16 -10 -47 -43 -67 -75 -50 -78 -104 -126 -198 -175 -50
-26 -85 -51 -97 -71 -10 -17 -30 -94 -45 -172 l-27 -141 11 -2265 c7 -1246 16
-3604 21 -5240 6 -1636 12 -3301 15 -3700 3 -399 10 -1301 15 -2005 6 -704 10
-1337 10 -1407 l0 -128 -15017 0 -15016 0 7 862 c10 1295 34 3530 46 4253 6
352 12 993 14 1425 3 432 7 1271 10 1865 4 594 8 1283 11 1530 2 248 10 1497
16 2776 12 2197 11 2330 -5 2395 -23 92 -69 175 -125 226 l-45 42 -42 -89
c-23 -50 -61 -147 -83 -216 -45 -138 -97 -229 -154 -273 -40 -30 -66 -81 -126
-246 -68 -185 -106 -254 -168 -308 -68 -59 -83 -83 -123 -202 -61 -178 -112
-274 -183 -343 -85 -82 -111 -124 -147 -238 -34 -110 -71 -171 -158 -265 -52
-55 -77 -96 -143 -231 -81 -164 -87 -172 -201 -278 -35 -32 -52 -61 -87 -150
-51 -127 -94 -199 -169 -273 -68 -70 -118 -145 -174 -262 -45 -95 -68 -121
-182 -213 -22 -18 -48 -55 -67 -95 -17 -37 -40 -85 -50 -108 -23 -50 -101
-141 -145 -172 -19 -12 -44 -42 -55 -65 -12 -23 -55 -98 -96 -167 -62 -103
-92 -142 -172 -220 -82 -79 -104 -108 -135 -173 -42 -89 -90 -147 -153 -184
-56 -32 -108 -94 -130 -152 -34 -93 -91 -159 -171 -200 -50 -26 -78 -58 -97
-111 -34 -97 -114 -190 -198 -231 -37 -18 -49 -32 -87 -107 -37 -73 -63 -106
-158 -202 -63 -63 -125 -132 -138 -152 -36 -56 -136 -170 -263 -298 -62 -63
-142 -152 -177 -197 -36 -45 -79 -91 -97 -102 -39 -24 -190 -182 -232 -242
-17 -24 -46 -53 -65 -64 -52 -31 -178 -154 -222 -217 -22 -31 -58 -69 -81 -85
-61 -42 -174 -151 -224 -216 -24 -31 -66 -74 -93 -95 -124 -96 -205 -167 -324
-285 -96 -95 -148 -138 -202 -168 -41 -23 -72 -45 -69 -49 3 -4 -7 -19 -22
-32 -16 -13 -40 -42 -55 -64 -27 -42 -92 -100 -137 -124 -13 -7 -54 -22 -90
-35 -62 -20 -66 -24 -77 -62 -7 -22 -19 -53 -28 -70 -26 -52 -117 -113 -211
-143 -62 -19 -99 -53 -115 -102 -14 -46 -55 -108 -71 -108 -5 0 -26 -11 -47
-24 -20 -13 -55 -30 -77 -37 -57 -17 -141 -83 -164 -127 -31 -59 -82 -109
-141 -141 -30 -16 -100 -52 -155 -81 -107 -56 -170 -107 -209 -169 -39 -61
-123 -112 -218 -132 -73 -16 -91 -30 -127 -104 -44 -89 -141 -165 -211 -165
-39 0 -145 -77 -178 -129 -28 -45 -94 -105 -132 -119 -8 -3 -40 -20 -70 -38
-30 -18 -101 -49 -158 -68 l-103 -34 -38 -63 c-46 -75 -105 -120 -195 -148
-84 -26 -183 -85 -201 -121 -29 -55 -78 -101 -145 -135 -83 -42 -224 -99 -295
-120 -34 -9 -56 -22 -59 -33 -4 -10 -19 -39 -35 -64 -34 -53 -115 -103 -225
-137 -110 -35 -175 -74 -262 -158 -95 -92 -154 -124 -288 -158 -122 -31 -193
-68 -210 -110 -34 -81 -197 -169 -386 -209 -120 -25 -172 -52 -190 -96 -15
-36 -85 -102 -137 -128 -59 -30 -224 -80 -305 -93 -85 -13 -139 -41 -164 -84
-29 -51 -77 -96 -134 -125 -56 -28 -204 -70 -319 -90 -65 -12 -161 -53 -161
-69 0 -5 -21 -32 -46 -60 -72 -81 -179 -126 -375 -160 -63 -10 -140 -29 -172
-41 -53 -20 -97 -52 -97 -71 0 -4 -27 -29 -60 -54 -71 -55 -151 -88 -264 -111
-45 -9 -153 -34 -241 -55 l-160 -40 -43 -50 c-57 -65 -114 -102 -192 -128 -65
-22 -187 -46 -275 -56 -93 -10 -120 -16 -199 -42 -63 -20 -89 -36 -130 -75
-43 -41 -124 -88 -221 -129 -33 -14 -221 -48 -375 -69 -178 -23 -246 -46 -309
-102 -50 -45 -58 -50 -156 -91 -103 -43 -200 -64 -460 -97 -82 -10 -203 -30
-268 -44 -65 -14 -120 -26 -122 -26 -2 0 -20 -16 -40 -34 -46 -43 -149 -97
-238 -125 -74 -22 -279 -52 -497 -71 -74 -7 -215 -27 -313 -45 -161 -30 -181
-36 -213 -64 -47 -42 -99 -67 -207 -101 -146 -44 -236 -57 -787 -109 -225 -22
-368 -52 -417 -88 -17 -13 -60 -36 -95 -52 -167 -78 -363 -110 -908 -151 -146
-11 -276 -22 -290 -25 -14 -2 -45 -7 -70 -10 -139 -18 -217 -39 -268 -72 -113
-74 -252 -113 -527 -147 -182 -24 -291 -32 -705 -56 -344 -20 -616 -59 -665
-96 -40 -30 -217 -88 -340 -113 -191 -38 -488 -63 -960 -81 -433 -16 -625 -29
-865 -56 -286 -32 -270 -28 -270 -64 0 -17 5 -30 10 -30 6 0 10 -20 10 -45 l0
-45 -31561 0 -31562 0 6 68 c5 61 1 79 -39 197 -24 72 -45 143 -46 159 -2 23
-11 32 -53 51 -93 41 -153 125 -179 249 -20 93 -72 189 -113 212 -78 42 -169
194 -208 350 -30 115 -54 158 -103 181 -53 25 -111 87 -137 146 -29 67 -101
270 -115 323 -8 35 -16 44 -52 60 -90 40 -129 91 -168 224 -25 82 -96 230
-110 230 -18 0 -83 65 -122 123 -49 72 -86 152 -92 197 -16 121 -56 203 -104
213 -42 9 -98 63 -125 120 -34 70 -92 214 -105 257 -6 19 -18 61 -26 92 -15
53 -19 57 -61 74 -66 25 -130 99 -155 181 -11 36 -20 70 -20 75 0 5 -18 47
-40 93 -33 68 -49 90 -94 123 -79 60 -155 194 -190 336 -28 113 -49 150 -101
181 -69 40 -119 97 -148 166 -33 81 -91 241 -108 297 -10 34 -21 48 -50 62
-80 41 -156 142 -173 230 -4 19 -28 78 -52 130 -34 71 -54 101 -79 117 -38 25
-139 157 -161 210 -8 18 -25 74 -39 124 -30 112 -52 149 -116 190 -31 19 -63
52 -82 83 -45 71 -109 213 -146 326 -30 90 -33 96 -71 114 -76 36 -144 131
-165 226 -14 67 -93 204 -134 236 -78 57 -173 228 -202 359 -17 79 -50 128
-117 172 -63 42 -101 90 -130 165 -127 324 -130 331 -159 346 -78 39 -149 138
-177 245 -16 62 -72 180 -95 201 -9 9 -35 31 -58 51 -77 67 -137 180 -182 342
-27 98 -48 131 -102 159 -83 42 -129 121 -229 395 -37 103 -46 118 -74 131
-82 40 -135 111 -165 225 -25 96 -94 222 -136 250 -68 45 -170 229 -201 360
-17 75 -57 147 -90 162 -37 16 -94 72 -120 117 -14 24 -56 120 -93 214 l-68
172 -61 49 c-73 59 -101 103 -147 234 -42 119 -87 197 -139 238 -69 55 -151
204 -186 337 -20 77 -61 140 -117 181 -83 62 -111 112 -219 391 -34 89 -42
101 -88 135 -60 46 -108 106 -130 165 -8 24 -25 68 -36 99 -29 79 -89 175
-152 239 -69 73 -120 161 -153 268 -38 127 -51 148 -145 242 l-85 85 -80 193
c-78 190 -81 195 -132 233 -28 21 -60 51 -72 68 -29 41 -81 152 -81 175 0 36
-85 180 -136 232 -91 92 -148 191 -192 335 -27 88 -73 160 -123 195 -46 31
-90 91 -121 162 -11 26 -28 65 -38 87 -10 22 -36 84 -60 137 -37 85 -48 102
-90 132 -54 39 -109 127 -146 233 -31 89 -90 189 -143 243 -25 26 -100 106
-165 178 l-119 131 -45 -39 c-40 -36 -139 -96 -236 -145 -28 -14 -55 -42 -87
-89 -54 -80 -100 -121 -179 -161 -85 -43 -115 -70 -148 -128 -37 -66 -120
-142 -187 -173 -55 -24 -101 -70 -158 -155 -38 -57 -95 -105 -157 -132 -50
-21 -116 -81 -154 -141 -44 -68 -81 -103 -141 -133 -27 -14 -75 -52 -106 -84
-47 -49 -58 -67 -64 -106 -4 -27 -21 -102 -37 -168 l-31 -120 7 -225 c3 -124
6 -490 6 -815 0 -324 5 -984 10 -1465 10 -930 27 -3454 35 -5275 3 -605 9
-1437 15 -1850 5 -412 14 -1225 20 -1805 5 -580 14 -1431 20 -1890 6 -459 12
-960 13 -1112 l3 -278 -14958 0 -14958 0 0 29640 0 29640 14954 0 14953 0 -3
-207z"/>
<path d="M79135 80363 c-208 -48 -261 -65 -292 -95 l-33 -32 0 -24936 0
-24936 33 -32 c25 -25 56 -38 152 -64 l120 -33 13235 -3 c12923 -3 14573 0
15475 28 824 26 1321 68 1759 150 379 71 693 105 1299 140 345 20 411 26 672
61 208 28 340 54 480 94 237 68 583 120 1065 160 378 31 616 74 788 141 212
82 429 123 847 159 326 28 526 72 740 162 142 60 324 97 685 138 375 43 486
69 670 155 167 79 309 114 625 155 142 18 353 68 410 97 22 11 72 40 110 63
89 54 195 89 360 121 204 39 385 83 440 108 28 13 75 41 105 64 74 57 174 97
332 133 259 60 374 103 463 174 80 63 140 90 280 126 112 28 305 89 337 105
15 8 52 36 84 64 81 71 166 110 344 158 188 52 224 69 311 149 84 77 128 99
316 163 179 60 190 66 279 150 75 71 81 74 357 180 131 51 141 56 185 108 60
71 109 103 223 148 125 49 203 93 275 155 32 29 61 55 64 59 12 16 131 80 195
104 147 56 168 71 248 168 31 38 63 60 180 119 169 86 211 113 298 194 73 69
128 102 233 143 72 27 96 48 216 178 28 31 68 61 105 78 89 42 189 111 235
164 55 61 139 122 289 206 82 47 131 81 149 105 56 74 129 138 202 175 99 49
134 77 173 139 43 66 88 106 174 151 76 41 134 91 177 155 36 51 82 90 144
122 48 25 156 126 205 192 16 21 63 63 105 94 94 68 164 134 203 190 17 24 65
68 107 100 42 31 179 160 304 287 285 289 273 277 361 362 40 39 101 107 135
150 33 43 74 87 90 96 33 20 162 153 188 195 30 47 74 94 125 135 72 57 112
103 165 191 31 54 62 90 96 115 99 74 134 111 180 194 49 87 95 139 165 181
51 32 85 76 127 165 35 71 130 183 177 207 17 9 43 45 74 102 78 144 171 279
224 323 58 49 112 124 172 238 27 53 60 99 89 124 25 22 58 52 73 66 42 38 72
82 92 137 34 95 90 190 151 255 76 81 142 182 201 308 38 83 55 107 122 172
96 92 101 100 146 227 52 150 93 221 180 313 66 69 105 136 137 234 33 100 77
177 139 241 68 71 114 163 180 354 43 125 101 222 155 257 26 18 98 177 150
333 45 135 73 186 139 254 66 68 84 111 190 467 24 79 55 139 101 196 82 100
129 214 164 394 36 191 85 316 162 417 62 81 102 208 153 478 38 201 75 313
145 437 73 128 108 252 145 513 49 348 90 501 164 620 62 100 108 297 141 605
49 463 75 596 154 793 92 230 119 395 161 987 33 452 82 780 163 1070 24 89
54 310 82 615 36 399 50 664 75 1420 17 505 29 784 50 1150 8 138 21 486 30
775 8 289 20 665 25 835 6 171 10 434 10 585 0 400 -27 1245 -50 1550 -12 158
-26 408 -45 810 -13 285 -21 459 -55 1150 -23 460 -63 747 -158 1112 -44 171
-91 479 -117 763 -57 639 -90 840 -165 1001 -67 145 -110 341 -145 654 -47
421 -84 580 -171 746 -63 119 -102 279 -144 579 -42 300 -74 420 -144 535 -18
30 -43 74 -54 96 -31 62 -78 249 -107 433 -15 91 -33 192 -42 225 -23 91 -71
205 -102 245 -71 91 -119 224 -161 454 -45 245 -81 342 -174 474 -56 78 -74
127 -136 370 -58 225 -79 278 -139 346 -71 82 -123 206 -161 377 -34 155 -71
236 -151 330 -63 74 -103 157 -143 298 -58 200 -95 279 -172 365 -60 67 -90
125 -135 262 -45 135 -90 221 -146 280 -75 78 -124 166 -166 300 -46 145 -77
198 -162 276 -51 47 -133 200 -181 338 -27 78 -35 90 -111 165 -83 81 -92 95
-172 268 -48 104 -72 141 -148 225 -72 79 -123 162 -165 267 -34 82 -64 120
-161 199 -35 29 -58 60 -88 122 -55 115 -107 191 -174 255 -60 58 -155 195
-221 319 -30 57 -53 85 -101 123 -72 57 -122 121 -160 204 -36 80 -75 127
-140 171 -61 40 -102 90 -140 170 -32 68 -91 134 -158 178 -56 37 -83 69 -128
147 -34 59 -115 147 -176 192 -26 20 -61 55 -77 78 -103 154 -151 206 -680
733 -493 493 -562 559 -682 657 -12 10 -39 29 -60 43 -21 14 -77 68 -125 120
-57 61 -117 114 -172 150 -46 30 -99 74 -117 97 -69 88 -153 163 -221 197 -48
23 -82 50 -115 88 -113 133 -123 142 -208 182 -84 40 -147 94 -220 186 -21 26
-59 54 -110 80 -108 54 -218 129 -283 193 -78 78 -143 123 -260 182 -73 38
-116 67 -145 99 -93 104 -132 136 -185 155 -90 32 -181 87 -255 156 -86 80
-163 128 -308 191 -123 54 -124 55 -223 154 -65 66 -77 73 -165 104 -153 53
-276 121 -343 190 -65 67 -154 117 -267 151 -106 31 -195 79 -273 147 -78 68
-175 119 -297 158 -113 36 -183 75 -250 136 -81 75 -169 116 -372 175 -142 40
-204 70 -283 137 -79 66 -193 119 -335 157 -129 34 -275 101 -335 155 -74 65
-151 95 -413 159 -166 41 -239 73 -339 149 -61 46 -91 61 -200 96 -70 22 -173
50 -228 62 -185 39 -280 76 -377 145 -91 65 -180 92 -518 159 -158 32 -276 70
-357 116 -117 66 -175 91 -266 114 -85 21 -155 34 -447 80 -178 29 -287 61
-415 124 -186 92 -308 121 -665 161 -350 39 -523 75 -675 142 -134 58 -199 77
-420 118 -66 12 -199 26 -430 45 -431 36 -668 72 -865 132 -63 19 -146 44
-185 54 -163 44 -500 82 -1027 114 -744 46 -1235 93 -1568 151 -549 95 -995
123 -2510 156 -354 8 -4736 12 -14665 13 -7788 2 -14169 1 -14180 -2z m23920
-12112 c756 -17 1535 -69 1760 -117 39 -9 81 -18 95 -20 14 -3 63 -16 110 -29
189 -55 488 -98 1033 -150 316 -30 517 -74 651 -142 101 -51 400 -130 561
-147 254 -28 477 -94 560 -167 49 -42 190 -90 385 -129 253 -52 378 -102 469
-188 32 -30 154 -76 411 -152 101 -30 164 -63 230 -120 74 -64 162 -110 305
-160 145 -51 173 -66 250 -141 60 -58 109 -86 325 -186 84 -39 105 -53 180
-132 72 -75 99 -95 180 -136 118 -59 159 -91 205 -160 23 -36 52 -64 83 -81
113 -64 177 -111 228 -167 29 -33 54 -63 54 -67 0 -4 40 -37 90 -74 49 -36
115 -97 147 -134 32 -37 99 -106 149 -155 84 -80 157 -174 198 -255 9 -17 35
-44 58 -58 72 -46 125 -110 173 -210 31 -66 58 -106 90 -136 128 -119 131
-122 218 -299 68 -139 97 -186 142 -234 70 -75 106 -137 139 -242 43 -140 96
-241 156 -303 64 -65 114 -170 150 -315 44 -177 93 -293 158 -378 77 -99 108
-186 162 -454 43 -211 84 -330 136 -398 68 -89 120 -263 153 -510 41 -297 89
-490 161 -647 28 -59 55 -129 60 -155 5 -26 16 -77 24 -113 23 -101 44 -261
71 -555 34 -357 82 -667 130 -835 115 -405 142 -726 185 -2215 5 -192 12 -406
16 -475 15 -329 22 -1378 14 -1965 -13 -902 -51 -2248 -75 -2665 -35 -593 -59
-785 -131 -1029 -30 -103 -49 -197 -84 -431 -15 -100 -27 -205 -65 -583 -46
-463 -76 -611 -156 -768 -61 -122 -104 -294 -144 -576 -39 -274 -75 -396 -152
-511 -54 -80 -91 -167 -118 -280 -12 -53 -35 -149 -50 -212 -34 -144 -68 -219
-134 -293 -66 -75 -70 -83 -137 -284 -72 -215 -90 -249 -177 -337 -68 -69 -74
-79 -111 -182 -67 -186 -116 -273 -190 -338 -67 -59 -125 -142 -151 -217 -24
-69 -82 -145 -151 -199 -53 -42 -71 -64 -105 -133 -57 -113 -88 -155 -202
-277 -54 -58 -137 -154 -184 -215 -47 -60 -102 -123 -122 -139 -69 -57 -136
-122 -211 -205 -41 -45 -129 -125 -195 -176 -66 -51 -151 -123 -190 -160 -106
-100 -176 -152 -262 -192 -96 -45 -136 -75 -164 -120 -32 -51 -107 -106 -196
-143 -108 -45 -188 -94 -258 -161 -72 -68 -164 -116 -305 -159 -126 -39 -216
-86 -286 -150 -82 -74 -139 -96 -454 -170 -159 -37 -262 -75 -354 -131 -134
-81 -250 -111 -616 -159 -129 -17 -274 -39 -321 -49 -99 -22 -259 -70 -274
-81 -26 -20 -199 -72 -299 -90 -211 -37 -403 -56 -901 -90 -411 -28 -957 -93
-1095 -130 -130 -35 -758 -91 -1245 -110 -670 -27 -1075 -31 -3355 -37 -2668
-6 -2466 -10 -2675 52 -65 20 -88 32 -123 68 l-42 43 -15 119 c-13 105 -15
1677 -15 12782 l0 12662 58 59 c60 61 60 61 247 107 52 12 373 14 2365 11
1268 -3 2512 -9 2765 -15z"/>
<path d="M103172 63563 l-45 -47 6 -1795 c17 -4634 19 -7238 8 -10681 -9
-2584 -9 -3708 -2 -3809 10 -143 11 -145 43 -178 l32 -33 209 0 c466 0 1057
44 1277 95 161 37 755 112 1221 155 363 32 406 39 549 77 104 28 139 43 161
69 26 32 129 92 194 114 83 28 245 135 313 208 68 72 156 187 214 278 25 39
72 93 103 120 74 63 118 132 151 236 32 100 77 178 140 238 73 71 128 203 178
435 31 140 77 261 131 339 50 74 68 119 99 256 33 143 43 215 61 420 24 279
52 462 96 620 12 41 27 99 35 128 8 29 22 69 33 90 25 50 46 162 70 372 34
301 41 420 56 955 8 286 22 750 30 1030 7 281 20 817 26 1192 14 766 7 1254
-41 2573 -5 157 -14 434 -20 615 -13 400 -24 583 -51 820 -28 258 -47 355 -90
485 -62 185 -123 531 -144 810 -32 422 -82 678 -156 793 -66 102 -114 255
-149 472 -45 278 -87 411 -145 465 -69 64 -122 179 -185 399 -35 126 -65 180
-115 211 -50 31 -101 92 -139 167 -44 87 -91 141 -181 208 -40 29 -85 73 -101
97 -39 61 -122 126 -197 154 -104 41 -147 66 -191 112 -22 25 -52 57 -66 71
-29 32 -214 96 -385 134 -143 32 -251 74 -350 137 -128 81 -280 119 -636 160
-320 37 -608 95 -744 150 -164 67 -687 129 -1084 130 l-174 0 -45 -47z"/>
<path d="M142395 79970 c-205 -34 -195 -31 -221 -69 -13 -20 -43 -86 -66 -146
l-43 -110 -3 -24325 -2 -24325 22 -50 c12 -27 42 -76 66 -107 l43 -58 8689 0
8688 0 61 46 c33 25 78 68 101 96 l40 51 0 5777 0 5777 28 39 c16 21 42 54 59
72 17 19 50 68 73 110 24 42 57 100 73 129 29 50 92 105 147 129 47 21 127 92
162 145 44 66 86 106 158 148 71 42 116 82 185 167 32 39 82 85 114 105 71 45
183 138 236 198 22 24 114 104 205 177 91 74 191 162 222 198 36 39 99 91 164
135 81 54 117 86 149 129 55 76 114 126 206 177 63 34 80 50 116 104 59 90 92
121 175 165 88 47 119 74 164 144 43 67 85 106 154 141 71 37 142 100 173 154
33 56 100 117 160 146 54 26 133 101 194 183 29 40 62 69 113 99 74 44 148
110 213 192 21 26 72 70 113 98 41 28 133 105 203 173 71 67 184 165 252 218
68 53 152 128 186 166 41 46 100 95 175 145 85 57 120 87 141 121 38 61 118
131 192 168 74 37 98 58 141 125 46 73 102 124 176 163 77 40 110 70 154 137
43 67 96 117 160 149 70 35 128 86 168 149 41 63 89 109 136 131 66 31 140 94
195 169 43 59 73 86 139 129 87 56 145 108 209 188 21 27 66 67 100 90 82 55
151 112 207 172 52 55 186 170 280 240 36 27 106 90 155 140 90 92 149 139
237 189 30 17 64 51 96 95 58 80 113 128 197 172 75 39 90 53 130 115 48 74
106 128 182 168 70 37 125 87 161 147 30 51 90 105 147 134 71 35 130 89 175
160 39 60 60 78 200 169 46 30 82 65 122 119 48 63 76 89 157 142 57 38 117
88 143 117 73 88 137 149 155 149 54 0 276 -143 373 -240 45 -44 63 -72 90
-140 66 -168 103 -231 192 -329 58 -63 110 -155 142 -247 37 -109 64 -154 141
-234 85 -88 103 -118 184 -310 59 -139 66 -150 140 -225 65 -67 82 -93 109
-160 63 -155 111 -239 183 -320 81 -92 118 -156 160 -275 40 -114 65 -154 143
-230 73 -71 105 -126 187 -325 50 -120 59 -135 120 -195 85 -84 101 -108 144
-221 45 -116 86 -184 170 -279 74 -83 108 -143 153 -272 39 -109 62 -145 153
-238 72 -73 76 -81 152 -255 76 -176 79 -182 155 -260 63 -64 83 -94 106 -150
59 -149 118 -255 175 -316 70 -75 122 -159 161 -263 54 -145 70 -171 154 -257
81 -83 83 -86 161 -267 76 -173 84 -187 143 -245 72 -71 119 -144 150 -235 31
-93 83 -179 145 -244 71 -73 127 -168 172 -291 48 -134 57 -149 126 -215 76
-72 108 -118 147 -212 85 -206 120 -269 181 -326 70 -65 101 -114 139 -222 36
-100 83 -181 143 -241 81 -82 129 -164 186 -320 38 -107 57 -135 153 -230 57
-58 71 -80 110 -171 86 -206 125 -277 185 -332 66 -60 96 -109 140 -228 40
-105 83 -175 157 -250 60 -62 130 -189 173 -315 33 -97 49 -120 140 -210 62
-61 77 -83 115 -170 72 -167 140 -298 163 -314 61 -41 136 -158 167 -256 25
-80 82 -172 149 -243 74 -77 136 -189 185 -331 30 -87 60 -133 121 -185 63
-52 99 -104 131 -189 58 -153 124 -269 194 -342 72 -75 108 -136 134 -227 23
-76 78 -164 153 -243 67 -69 118 -161 167 -295 15 -41 33 -88 39 -105 6 -16
50 -68 97 -115 74 -73 91 -96 119 -163 78 -189 133 -288 195 -352 69 -70 106
-132 141 -235 32 -93 86 -182 147 -239 74 -69 134 -180 213 -395 13 -35 39
-69 90 -120 88 -87 101 -105 154 -231 59 -140 128 -262 157 -282 42 -27 113
-138 145 -225 47 -127 87 -195 157 -262 52 -50 73 -81 117 -171 29 -60 66
-146 81 -190 25 -71 36 -88 100 -150 89 -88 102 -108 153 -229 58 -139 104
-218 172 -293 74 -82 104 -131 144 -243 42 -115 74 -168 141 -232 71 -68 118
-149 185 -318 53 -132 56 -137 134 -215 65 -64 87 -94 111 -150 72 -171 134
-282 197 -353 70 -77 126 -175 151 -262 24 -81 65 -146 146 -228 77 -79 119
-155 191 -347 31 -82 41 -97 114 -170 82 -82 91 -97 165 -267 75 -174 122
-229 325 -386 l81 -62 10674 0 10675 0 60 29 c62 29 138 102 156 150 8 20 5
29 -21 54 -39 38 -100 142 -135 230 -22 55 -38 77 -83 115 -99 84 -127 117
-169 203 -47 97 -117 193 -167 229 -42 30 -112 135 -195 291 -51 97 -71 124
-134 180 -73 67 -77 73 -166 258 -18 36 -74 97 -142 152 -32 26 -60 66 -103
145 -74 138 -99 174 -176 254 -83 88 -111 129 -176 264 -40 83 -66 124 -91
143 -90 71 -139 130 -187 228 -42 85 -63 114 -140 191 -82 82 -99 106 -176
249 -47 87 -97 170 -111 184 -14 14 -51 50 -81 79 -52 50 -71 81 -132 213 -25
54 -56 89 -159 180 -33 30 -62 69 -89 124 -60 119 -96 170 -192 275 -75 82
-96 113 -153 228 -38 78 -78 145 -97 162 -17 16 -55 50 -84 76 -41 37 -64 70
-103 151 -50 100 -84 144 -189 239 -20 19 -78 108 -135 210 -55 98 -109 185
-119 193 -100 82 -143 140 -192 256 -29 69 -38 80 -177 213 -29 27 -63 78 -92
135 -53 104 -106 179 -166 234 -23 21 -65 74 -94 118 -51 77 -125 218 -125
240 0 14 -60 75 -104 105 -48 33 -98 101 -136 185 -40 89 -90 156 -149 199
-53 39 -76 71 -141 191 -79 146 -122 209 -196 283 -64 63 -82 90 -135 198 -48
98 -69 131 -102 157 -82 64 -132 124 -171 202 -53 107 -103 180 -166 240 -69
67 -122 145 -195 290 -54 107 -66 124 -118 164 -69 52 -118 115 -147 190 -27
71 -101 174 -144 200 -50 31 -91 82 -132 163 -66 131 -142 242 -217 320 -73
74 -92 105 -171 277 -12 28 -58 75 -133 138 -38 32 -63 66 -98 135 -64 123
-89 159 -176 249 -72 74 -148 193 -223 352 -19 40 -40 66 -70 86 -69 48 -113
104 -167 216 -46 95 -58 111 -139 185 -76 69 -95 94 -136 173 -63 124 -133
225 -198 290 -68 67 -127 158 -161 246 -27 71 -54 104 -159 195 -43 37 -65 66
-93 125 -50 106 -104 182 -162 231 -59 50 -128 153 -204 306 -46 91 -65 119
-109 155 -95 79 -114 107 -192 279 -10 24 -59 75 -157 166 -27 25 -59 72 -84
120 -53 106 -135 225 -205 297 -63 65 -121 157 -165 261 -23 54 -41 78 -84
115 -96 81 -131 124 -173 211 -45 94 -94 161 -164 223 -60 53 -92 103 -209
322 -32 58 -67 110 -78 116 -41 21 -124 116 -149 170 -14 30 -36 77 -49 104
-13 28 -45 70 -72 95 -119 110 -136 131 -186 226 -69 129 -93 163 -191 270
-70 75 -92 109 -147 221 -64 131 -75 145 -167 217 -39 30 -93 107 -116 166
-22 57 -74 132 -120 175 -94 87 -108 107 -189 251 -46 82 -91 162 -100 177 -9
16 -36 44 -60 63 -60 46 -122 132 -156 212 -31 78 -66 128 -115 167 -84 68
-114 104 -157 190 -58 114 -89 159 -175 254 -86 93 -127 156 -188 287 -36 76
-57 109 -85 130 -98 74 -123 105 -176 211 -52 105 -78 138 -190 240 -19 18
-75 104 -129 200 -81 144 -105 179 -171 243 -67 66 -83 90 -132 191 -52 109
-60 120 -146 198 -73 67 -97 96 -122 150 -48 100 -112 194 -169 248 -66 61
-148 184 -204 305 -24 52 -57 106 -72 120 -16 15 -55 50 -86 78 -46 42 -67 73
-108 157 -50 102 -63 118 -182 231 -25 23 -60 71 -78 105 -85 161 -161 274
-230 341 -61 59 -78 84 -131 192 -50 103 -69 131 -107 162 -87 69 -127 119
-182 228 -44 88 -69 123 -129 184 -88 89 -153 184 -220 326 -45 93 -56 107
-116 154 -73 58 -114 112 -145 190 -28 70 -76 142 -119 177 -76 61 -118 113
-169 207 -76 142 -117 201 -202 292 -74 79 -133 175 -160 258 -12 39 -66 98
-152 168 -34 28 -58 62 -98 140 -59 118 -104 180 -166 232 -58 49 -123 148
-205 317 -39 79 -56 103 -92 127 -70 49 -115 106 -167 216 -49 102 -65 122
-180 224 -31 27 -62 72 -94 134 -67 127 -117 200 -196 283 -75 81 -126 160
-166 259 -27 69 -50 97 -155 187 -44 38 -64 68 -108 155 -46 93 -67 121 -137
191 -94 93 -125 138 -214 311 -55 106 -71 129 -125 175 -69 57 -119 125 -147
200 -28 73 -66 123 -152 200 -62 56 -84 84 -122 157 -53 104 -110 185 -212
301 -66 76 -147 211 -167 279 -11 36 -54 84 -107 123 -63 44 -96 88 -153 203
-40 82 -61 111 -134 183 -89 87 -90 90 -244 371 -24 44 -50 76 -82 99 -59 42
-119 122 -151 200 -34 86 -67 135 -111 168 -71 52 -128 121 -167 200 -55 110
-95 167 -170 248 -74 79 -122 163 -159 277 l-25 77 19 52 c27 71 84 155 128
187 46 35 99 89 136 141 36 49 129 122 205 161 58 30 73 46 119 121 34 54 96
107 170 144 67 34 122 84 155 140 31 53 102 116 160 143 56 27 148 111 180
166 29 49 75 89 153 131 51 27 137 110 196 189 16 20 68 62 115 93 56 35 121
91 182 153 52 54 140 132 195 173 55 42 156 128 225 192 69 65 168 146 221
180 59 40 106 79 124 105 45 65 141 148 213 184 70 36 104 67 140 127 34 56
110 122 191 164 52 27 82 51 105 82 86 121 111 146 191 190 94 52 126 80 171
150 43 67 74 95 149 140 91 54 133 90 186 163 26 37 65 78 86 91 21 14 64 43
97 64 32 22 90 75 130 118 87 97 71 83 191 171 55 40 143 114 196 165 114 109
200 178 291 238 37 24 81 64 102 91 51 70 112 123 192 167 85 47 107 66 151
133 44 66 110 124 181 159 72 35 106 65 146 128 46 71 95 116 168 155 70 38
142 100 164 142 27 51 76 98 148 140 85 50 150 109 197 178 25 38 60 68 130
115 53 35 118 87 145 115 110 117 143 148 229 210 50 35 135 108 190 160 106
101 191 171 291 238 34 22 86 72 118 112 55 68 96 100 246 190 25 15 55 47 79
85 44 70 100 120 186 163 64 33 118 83 154 144 28 47 100 111 155 138 71 34
114 72 169 149 51 72 71 90 203 171 31 19 74 58 95 85 77 101 95 119 164 163
100 64 161 117 207 179 22 30 57 66 79 81 103 70 177 131 283 230 63 59 161
141 217 182 101 74 121 92 223 199 46 48 142 118 224 162 16 10 46 41 65 71
43 68 94 116 166 158 114 67 130 80 175 149 51 77 94 115 174 155 66 34 124
85 156 140 32 55 101 118 165 151 67 33 124 85 171 155 40 59 73 88 152 133
59 34 151 118 189 173 17 26 67 69 126 110 54 38 148 116 209 175 61 58 167
148 235 199 68 51 161 132 206 180 54 58 107 102 155 130 40 24 83 49 95 57
12 7 40 39 62 72 51 74 117 132 194 171 74 37 99 59 142 125 44 69 97 118 169
156 74 40 137 96 170 154 31 52 92 106 153 135 50 24 148 110 168 150 22 42
82 97 146 135 83 48 135 94 194 169 34 44 80 85 149 132 55 38 142 111 195
164 53 52 150 136 216 185 66 50 159 131 207 180 48 50 119 110 158 135 39 25
86 54 103 65 18 12 46 43 64 70 44 68 125 140 201 177 62 31 118 82 146 135
24 45 96 108 176 152 83 47 108 70 162 153 37 56 85 96 163 136 53 26 132 97
151 134 27 52 85 107 147 141 61 32 153 116 215 195 19 23 75 70 125 104 51
34 135 105 187 158 52 52 151 138 220 190 68 52 160 133 205 179 51 53 120
109 190 156 78 51 120 87 145 121 47 67 104 119 173 160 32 19 61 34 65 34 17
1 73 60 105 111 40 64 99 116 176 154 67 34 122 84 155 139 32 55 106 123 160
147 57 25 129 90 176 158 41 62 80 95 149 131 45 23 154 125 204 192 15 21 67
63 115 94 52 35 125 96 182 154 52 53 113 110 135 126 100 72 227 179 308 259
77 75 253 205 278 205 4 0 26 26 48 58 51 76 122 139 202 181 82 44 93 53 144
132 43 67 103 118 185 159 50 25 120 87 120 107 0 25 -53 124 -76 142 -16 12
-62 23 -146 35 -114 15 -1002 16 -11564 16 l-11440 0 -85 -34 c-46 -19 -116
-44 -156 -56 -80 -24 -138 -72 -175 -143 -29 -58 -96 -126 -158 -160 -63 -36
-123 -95 -146 -143 -26 -55 -83 -111 -169 -167 -66 -43 -87 -63 -120 -117 -48
-78 -120 -152 -174 -180 -63 -32 -108 -77 -151 -150 -44 -75 -88 -119 -158
-154 -57 -29 -117 -87 -144 -139 -29 -57 -96 -126 -155 -159 -64 -36 -115 -87
-154 -154 -34 -60 -100 -124 -158 -154 -55 -28 -110 -84 -149 -152 -36 -63
-92 -117 -151 -148 -61 -31 -107 -75 -147 -143 -51 -86 -68 -103 -160 -162
-86 -56 -123 -94 -155 -157 -26 -51 -94 -117 -144 -142 -55 -27 -132 -102
-160 -156 -28 -54 -93 -118 -159 -156 -62 -35 -110 -83 -137 -135 -30 -60 -96
-127 -159 -162 -64 -37 -124 -96 -151 -150 -30 -58 -87 -116 -149 -150 -71
-40 -132 -102 -164 -165 -27 -53 -88 -112 -149 -143 -59 -31 -111 -83 -153
-155 -40 -68 -84 -111 -164 -156 -55 -32 -108 -87 -143 -149 -34 -61 -89 -115
-146 -144 -54 -28 -128 -102 -164 -166 -31 -54 -90 -110 -148 -139 -52 -27
-122 -96 -148 -149 -33 -63 -78 -108 -151 -151 -66 -38 -130 -104 -160 -163
-25 -50 -76 -101 -136 -136 -83 -49 -109 -74 -170 -169 -44 -67 -65 -89 -116
-121 -90 -56 -146 -108 -180 -167 -33 -60 -108 -133 -164 -162 -48 -25 -122
-102 -157 -163 -30 -53 -89 -109 -144 -138 -49 -25 -120 -96 -144 -144 -30
-57 -87 -116 -146 -149 -59 -34 -137 -108 -160 -153 -31 -60 -86 -116 -153
-155 -74 -43 -124 -95 -171 -177 -31 -53 -78 -97 -139 -128 -48 -25 -131 -112
-167 -176 -30 -53 -80 -100 -136 -129 -48 -24 -104 -78 -142 -137 -53 -81 -90
-119 -165 -168 -76 -50 -126 -101 -163 -167 -30 -52 -92 -109 -151 -140 -51
-26 -117 -95 -155 -163 -31 -54 -86 -104 -171 -155 -43 -26 -103 -94 -153
-174 -19 -31 -54 -62 -113 -102 -85 -57 -125 -98 -179 -184 -29 -47 -74 -87
-160 -144 -47 -31 -89 -77 -160 -178 -17 -23 -49 -56 -72 -73 -24 -16 -62 -43
-85 -60 -40 -29 -86 -82 -153 -177 -17 -24 -62 -64 -100 -89 -84 -56 -125 -98
-185 -187 -29 -44 -62 -78 -95 -99 -95 -61 -143 -103 -174 -150 -68 -106 -86
-127 -155 -170 -94 -60 -120 -85 -173 -167 -51 -79 -61 -89 -156 -153 -62 -41
-157 -141 -157 -164 0 -19 -85 -100 -139 -133 -69 -42 -112 -87 -171 -174 -33
-49 -63 -79 -112 -112 -89 -60 -131 -101 -185 -182 -44 -67 -90 -111 -148
-141 -40 -21 -124 -109 -169 -179 -37 -57 -75 -92 -134 -122 -44 -22 -137
-117 -161 -164 -24 -46 -79 -99 -152 -145 -54 -34 -120 -105 -181 -196 -16
-23 -46 -53 -69 -69 -94 -63 -163 -127 -203 -190 -49 -76 -68 -95 -146 -144
-68 -44 -116 -93 -172 -178 -31 -45 -63 -77 -108 -108 -83 -55 -145 -114 -186
-177 -38 -59 -96 -116 -141 -139 -44 -22 -133 -111 -168 -166 -39 -64 -63 -88
-124 -127 -79 -52 -125 -97 -175 -172 -46 -70 -69 -93 -173 -166 -58 -41 -99
-87 -166 -184 -16 -23 -56 -60 -90 -82 -83 -55 -140 -111 -190 -184 -47 -69
-64 -86 -132 -130 -55 -36 -142 -126 -193 -201 -19 -27 -48 -59 -65 -72 -141
-101 -145 -104 -240 -232 -18 -25 -52 -58 -75 -75 -103 -73 -161 -127 -197
-182 -53 -81 -71 -99 -145 -149 -79 -52 -115 -88 -177 -179 -35 -50 -67 -82
-116 -116 -84 -56 -138 -109 -182 -174 -41 -62 -79 -101 -130 -132 -56 -35
-130 -108 -175 -173 -43 -62 -89 -107 -141 -138 -41 -25 -139 -126 -189 -197
-19 -27 -64 -70 -100 -94 -81 -57 -144 -119 -195 -195 -27 -39 -64 -75 -108
-106 -91 -63 -118 -90 -187 -186 -40 -54 -77 -92 -115 -117 -76 -51 -128 -100
-172 -161 -54 -75 -91 -113 -153 -156 -60 -41 -130 -114 -198 -204 -23 -31
-63 -70 -88 -85 -65 -42 -138 -113 -195 -191 -27 -38 -68 -83 -91 -99 -38 -28
-49 -31 -117 -31 -42 -1 -110 -5 -151 -10 -87 -10 -87 -10 -140 97 l-30 63 0
8968 0 8969 -40 51 c-23 28 -68 71 -101 96 l-61 46 -3343 0 c-2840 0 -3371 2
-3522 15 -106 8 -446 18 -843 24 -1677 26 -2013 32 -2570 41 -1740 31 -3453
54 -5260 70 -1262 11 -1563 11 -1635 0z m8500 -1228 c133 -18 185 -31 178 -48
-3 -8 0 -14 6 -14 19 0 12 -18 -10 -25 -17 -6 -19 -9 -8 -16 10 -6 7 -9 -11
-10 -57 -3 -73 -7 -79 -18 -4 -6 -23 -13 -42 -15 -19 -2 -41 -7 -50 -11 -10
-3 -32 -5 -50 -2 -32 3 -116 -21 -142 -41 -16 -11 -123 -49 -162 -56 -16 -3
-47 -8 -68 -11 -51 -7 -101 -55 -134 -127 -31 -71 -95 -130 -161 -153 -76 -25
-169 -90 -191 -133 -22 -43 -84 -103 -133 -128 -18 -9 -46 -28 -63 -42 -36
-30 -162 -92 -187 -92 -10 0 -18 -4 -18 -8 0 -5 -13 -21 -29 -38 -15 -16 -38
-47 -49 -70 -11 -22 -38 -56 -60 -76 -39 -35 -134 -78 -173 -78 -11 0 -34 -6
-52 -14 -28 -11 -35 -22 -51 -77 -32 -104 -106 -164 -238 -193 -31 -7 -98 -62
-98 -80 0 -7 -11 -34 -24 -62 -27 -56 -93 -109 -161 -130 -72 -21 -144 -76
-177 -135 -35 -60 -78 -103 -128 -126 -19 -9 -48 -27 -65 -39 -38 -28 -146
-84 -162 -84 -18 0 -64 -46 -55 -55 4 -5 2 -5 -4 -2 -13 8 -56 -36 -78 -79
-24 -50 -90 -99 -161 -123 -36 -11 -76 -21 -88 -21 -37 0 -59 -23 -79 -81 -11
-30 -20 -60 -20 -66 -1 -7 -4 -13 -8 -13 -4 0 -12 -11 -18 -24 -15 -33 -84
-72 -159 -90 -78 -18 -118 -49 -132 -102 -6 -22 -26 -61 -46 -87 -34 -44 -60
-61 -155 -97 -68 -26 -148 -88 -159 -123 -15 -44 -74 -103 -135 -134 -28 -14
-53 -29 -56 -32 -8 -11 -167 -91 -180 -91 -16 0 -107 -96 -126 -131 -18 -36
-72 -89 -90 -89 -8 0 -14 -4 -14 -9 0 -11 -78 -38 -135 -47 -54 -8 -68 -21
-85 -74 -22 -71 -46 -113 -82 -141 -32 -25 -139 -69 -168 -69 -27 0 -90 -52
-90 -74 0 -36 -58 -125 -99 -151 -21 -14 -62 -35 -91 -46 -82 -31 -156 -84
-175 -127 -25 -53 -72 -99 -135 -133 -30 -16 -80 -45 -110 -64 -30 -18 -69
-36 -87 -40 -26 -5 -146 -98 -149 -115 -1 -9 -56 -94 -69 -106 -23 -24 -97
-55 -162 -68 -52 -11 -73 -21 -90 -42 -12 -15 -20 -31 -18 -34 7 -12 -43 -105
-74 -137 -29 -30 -122 -73 -158 -73 -27 0 -113 -61 -114 -81 -2 -23 -3 -27
-16 -59 -11 -26 -105 -119 -123 -121 -13 -2 -29 -6 -32 -8 -2 -2 -13 -4 -25
-7 -24 -4 -153 -89 -165 -107 -4 -6 -4 -15 -2 -19 3 -4 0 -8 -5 -8 -6 0 -11
-5 -11 -11 0 -14 -39 -64 -50 -64 -5 0 -21 -11 -36 -24 -14 -13 -33 -24 -41
-25 -8 -1 -19 -9 -24 -17 -5 -8 -9 -10 -9 -5 0 6 -10 -1 -22 -13 -37 -40 -201
-100 -258 -95 -8 1 -20 2 -26 3 -17 2 -26 65 -14 93 7 13 28 33 48 44 20 10
40 23 43 27 6 9 29 23 77 48 30 17 97 81 105 102 3 9 13 17 22 17 8 0 15 5 15
10 0 6 6 10 14 10 8 0 18 9 21 20 3 11 11 20 17 20 18 0 68 41 63 51 -4 5 1 9
10 9 8 0 23 9 32 19 9 11 20 18 25 15 4 -3 8 -1 8 4 0 6 11 13 25 16 14 4 25
10 25 15 0 5 14 12 30 16 18 4 27 11 24 17 -4 7 -2 8 4 4 12 -7 82 50 82 68 0
16 73 96 88 96 7 0 10 5 7 10 -3 6 3 10 15 10 12 0 18 5 15 10 -3 6 -1 10 5
10 7 0 26 10 43 22 17 12 38 23 45 24 25 4 94 57 121 94 14 19 34 44 44 54 9
11 17 23 17 28 0 4 13 14 29 23 16 8 35 20 43 27 7 7 45 29 85 48 39 19 70 36
68 38 -2 2 17 22 41 44 24 22 44 45 44 50 0 23 135 138 162 138 10 0 32 14 50
32 18 18 34 31 36 30 9 -8 32 0 32 11 0 8 11 20 25 27 13 7 33 24 42 37 33 45
114 123 129 123 8 0 14 3 14 8 0 4 23 20 50 35 28 16 50 32 50 38 0 5 8 9 18
9 9 0 23 9 30 20 7 11 19 20 27 20 8 0 15 4 15 9 0 5 14 12 30 16 17 4 28 10
25 15 -3 4 6 11 19 14 15 3 26 16 30 31 4 14 11 23 16 20 6 -4 13 1 17 10 13
36 152 155 179 155 4 0 15 7 24 15 10 9 27 18 39 20 22 4 111 90 111 107 0 23
130 130 161 133 20 1 133 82 163 117 20 24 43 50 51 59 8 9 15 21 15 27 0 7 4
12 8 12 5 0 17 8 28 18 10 9 44 30 74 46 30 16 57 33 60 37 3 5 21 15 40 23
19 8 33 15 30 16 -6 0 137 146 163 168 9 6 20 12 26 12 5 0 11 6 14 14 3 8 22
22 41 31 20 10 36 21 36 26 0 5 7 9 15 9 9 0 18 6 21 14 3 8 19 19 35 25 16 5
29 14 29 19 0 5 19 22 43 37 23 15 65 51 93 79 88 89 128 122 172 145 23 12
42 19 42 16 0 -7 36 12 62 33 52 44 118 115 118 129 0 18 18 36 55 56 17 8 41
25 55 37 14 12 37 24 52 27 16 3 28 9 28 14 0 5 7 9 15 9 8 0 15 5 15 10 0 6
5 10 12 10 15 0 88 80 88 97 0 8 5 11 10 8 6 -3 10 0 10 7 0 7 9 19 21 26 12
7 18 16 15 19 -7 7 19 33 33 33 6 0 11 4 11 9 0 5 14 11 31 15 17 3 28 10 25
14 -3 5 11 14 31 21 20 8 46 22 57 32 11 11 26 19 35 19 8 0 12 2 9 5 -2 3 29
40 71 84 54 55 123 110 236 186 88 59 168 117 178 129 86 101 169 165 272 212
53 23 80 48 139 132 21 28 41 50 46 47 4 -3 10 2 14 10 3 8 12 15 20 15 7 0
16 6 19 13 3 8 31 26 64 42 68 33 148 97 168 134 24 47 94 107 173 150 73 39
141 96 222 187 20 21 107 87 195 145 88 59 172 118 187 132 15 14 29 22 32 19
3 -3 6 2 6 12 0 9 11 22 25 28 14 6 25 16 25 22 0 17 91 72 227 139 50 25 101
55 112 66 12 12 21 19 21 17 0 -3 23 4 51 14 57 19 144 20 284 2z"/>
<path d="M12109 79938 c-25 -13 -91 -58 -146 -101 -90 -70 -104 -86 -129 -140
l-28 -62 3 -1450 c1 -797 6 -2721 12 -4275 9 -2744 10 -2829 29 -2950 21 -130
32 -211 50 -366 7 -63 10 -6157 10 -19856 l0 -19766 65 -60 c35 -33 93 -77
128 -96 l64 -36 8685 0 8685 0 30 43 c17 23 42 65 57 94 l26 52 0 5781 0 5780
25 72 c30 86 76 160 121 194 18 14 51 51 75 82 54 74 120 133 193 174 79 45
122 83 152 134 34 58 112 127 182 161 72 35 118 75 143 126 29 55 96 117 169
156 77 41 135 93 160 141 27 53 91 112 160 149 64 34 150 113 174 159 19 36
89 98 158 141 66 40 126 96 181 169 26 35 71 74 125 109 47 32 127 99 181 153
53 54 143 135 201 181 58 46 156 132 219 191 98 94 275 228 301 228 4 0 22 23
40 50 41 63 143 157 207 190 69 35 101 63 143 128 44 69 101 119 175 156 70
34 121 79 146 129 30 57 99 121 168 157 74 37 136 91 161 140 26 50 91 115
142 141 71 35 136 90 177 149 52 72 93 111 168 157 74 45 130 96 186 171 27
35 70 73 126 110 50 32 126 97 181 152 52 53 160 148 240 212 80 64 174 147
210 184 63 65 185 162 248 195 16 9 48 41 70 71 56 76 140 149 215 188 50 26
73 47 103 89 60 86 132 153 209 193 77 40 105 67 154 145 36 58 82 99 151 134
71 36 124 83 168 151 37 57 124 138 149 138 21 0 120 80 148 120 59 83 101
124 180 175 87 56 137 102 196 181 24 32 70 71 121 105 46 29 124 95 173 145
50 50 149 138 220 194 72 57 180 151 240 209 61 58 139 124 174 146 36 22 83
60 105 84 126 136 185 188 246 218 72 35 91 53 140 132 40 64 102 115 196 161
48 24 92 58 144 110 42 41 98 87 126 102 l51 28 45 -29 c54 -34 77 -64 148
-190 29 -52 93 -141 141 -199 90 -107 132 -180 167 -289 29 -89 63 -142 141
-217 74 -73 101 -121 187 -330 46 -113 54 -124 129 -200 66 -66 86 -94 109
-151 76 -187 117 -258 205 -353 58 -63 108 -156 145 -268 31 -93 69 -152 143
-218 65 -59 85 -94 168 -291 66 -158 68 -161 141 -230 75 -72 87 -93 158 -266
33 -81 86 -162 149 -228 60 -64 116 -163 151 -269 32 -96 78 -169 142 -225 65
-57 93 -104 170 -286 65 -155 72 -167 132 -225 80 -76 104 -115 148 -229 43
-113 91 -192 166 -275 71 -78 116 -158 158 -277 38 -110 59 -144 148 -232 72
-72 81 -87 183 -323 46 -107 62 -132 107 -175 74 -69 104 -115 151 -233 46
-118 95 -198 160 -264 59 -62 113 -151 151 -252 56 -149 72 -175 155 -259 80
-82 81 -83 160 -266 78 -179 82 -186 151 -255 70 -69 108 -130 134 -211 25
-81 92 -194 151 -256 78 -82 131 -172 175 -294 47 -132 56 -147 125 -213 73
-69 112 -123 139 -193 12 -30 35 -83 52 -119 16 -36 41 -87 53 -115 13 -29 55
-82 98 -126 65 -67 79 -88 106 -160 18 -46 37 -97 43 -113 19 -48 105 -174
127 -186 45 -24 130 -171 180 -314 37 -105 53 -130 146 -221 65 -64 75 -80
125 -195 90 -211 117 -259 176 -313 65 -59 95 -108 139 -226 38 -103 101 -207
144 -239 58 -42 138 -184 186 -327 33 -96 48 -120 140 -210 62 -61 77 -83 115
-170 88 -204 129 -278 189 -340 72 -74 101 -119 135 -215 42 -114 83 -184 152
-255 85 -87 127 -165 208 -388 13 -34 42 -71 105 -135 81 -81 90 -94 130 -192
74 -179 118 -258 185 -329 73 -78 106 -132 136 -221 34 -103 76 -173 149 -247
76 -78 134 -181 192 -343 32 -90 38 -99 115 -175 84 -83 97 -102 159 -249 59
-138 110 -223 168 -281 59 -59 101 -132 141 -243 36 -101 69 -154 142 -227 70
-71 116 -149 168 -285 56 -146 74 -176 142 -236 50 -44 71 -71 100 -132 127
-271 157 -323 220 -389 63 -68 101 -131 135 -230 32 -95 81 -173 150 -242 75
-75 131 -175 190 -344 30 -85 38 -98 104 -162 91 -89 107 -112 156 -232 59
-142 103 -216 175 -295 61 -66 144 -211 144 -250 0 -41 74 -159 143 -229 80
-82 127 -165 188 -338 32 -89 39 -99 119 -181 85 -86 92 -98 160 -258 47 -110
97 -191 155 -252 59 -60 111 -150 146 -250 54 -153 83 -177 274 -223 l150 -37
10659 0 10659 0 42 43 c23 24 52 69 65 101 l23 57 -23 42 c-40 73 -81 125
-131 167 -63 53 -120 139 -210 319 -41 81 -59 107 -93 130 -69 48 -114 106
-166 214 -48 101 -76 136 -177 222 -26 22 -57 66 -84 118 -62 120 -139 233
-214 311 -73 77 -121 153 -157 247 -24 64 -62 110 -164 195 -39 33 -61 64
-104 150 -45 91 -68 123 -138 194 -84 86 -145 177 -223 333 -33 66 -58 98
-130 167 -68 66 -94 99 -114 145 -51 117 -61 131 -156 225 -76 74 -105 111
-134 170 -52 103 -128 214 -192 280 -30 30 -70 78 -89 107 -37 55 -104 190
-104 209 0 12 -61 75 -140 143 -40 35 -63 69 -107 155 -48 95 -68 123 -139
191 -84 82 -116 129 -219 323 -49 94 -68 119 -111 152 -63 48 -117 120 -150
200 -34 83 -65 130 -108 166 -86 69 -127 117 -167 196 -57 115 -100 176 -186
270 -78 86 -150 197 -183 286 -27 70 -60 113 -116 148 -56 35 -98 92 -152 204
-39 82 -70 121 -173 216 -31 29 -73 94 -143 220 -55 99 -107 183 -115 188 -9
6 -40 32 -69 60 -42 40 -66 76 -113 173 -47 95 -70 131 -101 156 -102 81 -125
108 -172 199 -63 121 -109 190 -158 236 -78 73 -170 214 -219 336 -18 44 -37
70 -74 100 -89 73 -132 123 -159 182 -57 125 -111 201 -174 244 -40 28 -87 92
-137 185 -63 119 -146 255 -156 255 -5 0 -34 26 -65 57 -38 39 -68 84 -96 143
-22 47 -45 96 -51 109 -13 28 -57 72 -138 142 -40 34 -64 67 -93 125 -57 115
-96 173 -166 244 -75 76 -156 197 -209 312 -22 48 -52 97 -71 114 -76 68 -146
141 -157 164 -6 14 -26 57 -44 95 -25 56 -50 88 -124 160 -82 80 -101 106
-176 240 -66 118 -101 167 -164 235 -83 87 -128 156 -161 245 -18 48 -43 77
-168 195 -32 30 -64 77 -96 140 -63 122 -72 136 -162 229 -78 81 -154 198
-213 328 -28 59 -44 80 -93 118 -70 55 -126 132 -166 228 -28 67 -68 115 -173
210 -23 21 -62 75 -89 125 -81 150 -125 215 -199 293 -77 81 -124 153 -170
263 -23 54 -41 78 -84 115 -96 81 -128 118 -162 188 -50 104 -116 199 -166
240 -55 45 -131 159 -207 311 -49 97 -62 115 -113 154 -67 51 -124 127 -153
205 -27 71 -89 155 -145 193 -53 37 -82 74 -125 160 -46 93 -130 215 -196 285
-74 79 -107 128 -151 223 -19 42 -40 88 -46 101 -7 13 -32 40 -56 60 -92 75
-136 127 -175 206 -38 80 -120 205 -135 205 -4 0 -26 19 -50 43 -42 41 -103
138 -191 302 -32 60 -62 98 -121 153 -60 56 -85 88 -110 140 -72 155 -77 162
-201 272 -30 27 -61 70 -89 123 -61 119 -118 204 -184 272 -74 78 -146 187
-182 276 -28 72 -58 107 -162 198 -40 34 -62 67 -104 150 -45 91 -64 118 -142
196 -75 76 -102 112 -159 215 -38 69 -82 148 -97 175 -16 29 -49 67 -79 89
-62 47 -120 129 -156 222 -24 60 -40 81 -125 164 -81 79 -106 111 -145 185
-61 117 -88 156 -177 253 -81 88 -156 205 -188 294 -21 57 -45 86 -151 179
-45 40 -67 71 -108 155 -51 101 -82 141 -186 235 -25 23 -72 94 -133 205 -83
148 -104 178 -172 244 -69 67 -84 88 -133 192 -46 95 -65 124 -103 155 -85 69
-133 126 -165 192 -48 102 -94 169 -172 251 -77 81 -141 180 -195 300 -37 82
-63 114 -132 166 -52 38 -109 116 -134 185 -22 60 -98 158 -160 207 -31 24
-63 62 -85 101 -134 239 -174 297 -245 368 -60 59 -82 90 -116 160 -22 49 -46
99 -52 112 -14 29 -63 79 -135 139 -41 34 -63 64 -98 135 -57 113 -123 207
-170 244 -49 37 -126 153 -191 290 -42 86 -64 121 -92 141 -52 39 -134 123
-148 152 -6 14 -27 59 -47 100 -22 48 -52 91 -82 120 -117 112 -142 142 -187
227 -75 139 -127 215 -203 296 -73 76 -115 142 -154 239 -22 58 -57 98 -159
187 -35 30 -62 66 -83 110 -53 109 -96 172 -178 256 -78 81 -124 152 -204 312
-37 74 -57 99 -125 161 -80 73 -82 76 -160 242 -9 19 -60 78 -113 130 -63 63
-106 114 -123 150 -56 111 -141 237 -218 320 -65 70 -90 106 -138 205 -69 140
-78 153 -141 197 -61 44 -99 93 -143 184 -43 92 -100 171 -155 214 -52 42
-120 142 -201 299 -55 107 -70 129 -113 160 -61 44 -126 130 -155 207 -29 78
-79 144 -143 192 -59 43 -83 76 -151 202 -56 104 -97 163 -163 232 -72 76
-118 143 -160 234 -20 43 -41 90 -48 103 -6 13 -33 43 -60 65 -103 85 -131
120 -181 232 -60 132 -104 205 -157 261 l-41 42 61 66 c33 36 91 112 127 168
83 125 114 159 188 207 71 46 174 133 213 182 16 20 60 60 98 90 182 141 276
220 331 278 66 68 127 116 223 174 45 27 73 54 103 97 45 67 129 139 204 175
66 32 94 58 139 127 45 68 97 114 168 149 69 34 134 91 157 137 26 51 104 121
178 160 62 33 114 84 185 180 25 34 61 63 110 92 69 40 152 116 227 208 19 23
70 65 115 95 76 49 152 116 220 194 16 18 45 45 65 60 118 88 239 188 326 272
82 79 271 220 294 220 3 0 18 20 33 43 42 66 137 151 209 187 79 40 93 52 134
116 52 82 141 159 204 179 34 11 98 71 142 136 46 68 80 98 160 140 72 39 123
86 174 163 25 38 57 70 94 94 145 92 165 109 220 182 45 60 76 88 155 141 63
42 134 102 195 165 53 54 136 128 184 163 49 35 136 110 194 165 112 107 218
191 294 233 30 16 58 43 78 73 43 66 125 139 202 179 73 38 114 73 136 115 27
52 106 126 172 163 101 55 127 78 175 152 44 68 88 107 172 149 60 31 100 67
145 133 50 74 79 101 154 146 91 54 133 90 186 163 46 64 67 81 169 144 25 16
92 76 150 135 58 58 144 134 192 169 49 35 134 107 190 160 131 124 184 167
282 231 53 34 90 67 111 99 45 66 109 122 191 167 86 47 106 65 156 138 45 65
114 124 190 161 57 26 116 82 141 131 22 44 106 119 167 150 60 30 135 96 156
137 27 52 76 98 156 145 75 45 113 80 216 202 24 28 65 63 90 78 66 38 152
107 182 145 56 73 85 100 177 165 53 37 142 111 197 163 120 114 227 202 315
259 36 23 73 53 82 68 40 61 139 148 227 200 78 46 98 63 128 111 46 73 101
122 183 167 85 45 109 67 159 141 49 73 85 105 164 145 68 34 120 83 173 163
25 38 57 70 94 94 167 106 174 112 249 217 21 29 64 65 117 99 99 65 153 112
201 177 21 29 73 74 130 114 51 36 151 120 221 186 71 66 173 152 228 192 55
40 138 112 185 161 75 79 162 145 258 197 16 9 48 44 70 77 51 74 113 129 194
172 80 42 100 60 154 141 48 73 82 102 162 143 66 33 123 85 156 139 34 58 91
111 152 141 67 34 145 104 191 173 29 44 58 69 133 118 61 40 119 88 163 135
37 41 67 78 67 82 0 4 35 30 78 59 89 59 170 127 262 219 36 36 119 106 185
155 65 50 161 133 211 185 69 72 116 110 185 150 69 41 101 67 123 100 49 73
137 153 208 188 69 35 120 82 157 143 31 53 102 115 165 145 55 26 122 91 181
176 29 41 48 56 181 138 36 23 74 60 109 106 61 81 88 105 199 177 55 36 99
75 141 127 41 50 93 97 160 145 55 38 140 111 190 161 49 49 146 133 215 185
68 51 167 137 220 190 60 61 124 113 175 144 102 62 110 68 157 138 41 61 133
136 203 167 44 20 86 61 133 132 39 57 101 111 161 140 71 33 126 82 166 148
36 60 93 109 173 149 53 27 128 94 148 133 27 51 76 98 147 140 83 48 143 101
204 181 30 39 72 75 131 114 52 33 125 95 182 153 73 74 270 237 363 301 34
24 -89 156 -176 188 l-58 21 -11437 0 -11437 -1 -147 -23 c-145 -23 -149 -24
-204 -67 -31 -24 -73 -63 -93 -88 -52 -64 -120 -129 -186 -181 -32 -25 -90
-84 -127 -132 -38 -47 -94 -105 -125 -129 -89 -67 -132 -108 -194 -187 -32
-40 -80 -89 -106 -109 -69 -52 -148 -129 -201 -198 -55 -71 -56 -72 -107 -109
-48 -35 -189 -177 -230 -233 -16 -22 -48 -52 -70 -66 -46 -30 -184 -166 -218
-216 -13 -19 -66 -69 -118 -111 -51 -42 -125 -115 -164 -163 -38 -47 -99 -108
-135 -135 -65 -49 -130 -115 -204 -208 -22 -27 -64 -67 -94 -89 -30 -22 -89
-78 -131 -124 -42 -46 -100 -107 -130 -135 -169 -159 -235 -224 -252 -253 -11
-18 -48 -54 -82 -81 -34 -27 -96 -84 -137 -128 -41 -43 -111 -113 -155 -154
-44 -41 -114 -111 -155 -155 -41 -44 -106 -109 -145 -145 -69 -65 -173 -169
-271 -271 -28 -30 -94 -93 -147 -142 -52 -48 -110 -106 -127 -130 -18 -23 -54
-59 -79 -79 -25 -21 -84 -77 -131 -125 -47 -48 -118 -119 -159 -158 -40 -38
-110 -108 -155 -155 -44 -47 -112 -114 -151 -150 -38 -36 -114 -110 -167 -165
-53 -55 -106 -109 -117 -120 -12 -11 -163 -159 -335 -330 -173 -170 -356 -351
-407 -402 -52 -50 -119 -117 -150 -150 -31 -32 -98 -99 -150 -148 -52 -50
-125 -122 -164 -161 -38 -39 -303 -302 -589 -585 -285 -283 -636 -631 -781
-774 -144 -143 -446 -442 -671 -665 -814 -805 -2203 -2181 -2488 -2465 -161
-159 -321 -317 -356 -350 -36 -33 -96 -94 -135 -135 -38 -41 -111 -113 -160
-160 -50 -47 -113 -108 -140 -137 -64 -67 -427 -424 -491 -483 -27 -25 -74
-74 -104 -109 -30 -36 -94 -98 -142 -138 -47 -41 -114 -108 -148 -149 -35 -42
-104 -111 -154 -154 -51 -43 -119 -111 -153 -152 -33 -40 -91 -98 -129 -128
-37 -30 -86 -74 -109 -98 -158 -170 -214 -226 -255 -254 -26 -18 -60 -50 -76
-72 -46 -65 -152 -173 -217 -221 -33 -25 -81 -74 -107 -109 -53 -69 -162 -172
-226 -213 -22 -14 -53 -46 -69 -70 -36 -58 -167 -189 -232 -233 -29 -19 -56
-43 -61 -55 -20 -42 -137 -162 -217 -222 -45 -35 -92 -78 -102 -96 -32 -53
-142 -165 -210 -214 -38 -27 -82 -71 -108 -108 -52 -72 -150 -167 -216 -209
-24 -15 -60 -51 -79 -78 -57 -84 -120 -147 -200 -204 -52 -36 -89 -71 -113
-108 -47 -71 -130 -154 -206 -206 -38 -25 -75 -62 -100 -98 -52 -77 -122 -148
-201 -204 -39 -28 -81 -69 -104 -102 -46 -68 -158 -175 -220 -211 -31 -18 -60
-49 -91 -95 -50 -75 -144 -167 -212 -207 -27 -16 -62 -52 -97 -102 -57 -82
-127 -148 -212 -200 -36 -22 -62 -49 -88 -91 -46 -74 -132 -160 -208 -207 -40
-25 -68 -52 -96 -96 -52 -80 -117 -146 -200 -201 -49 -32 -77 -61 -105 -104
-46 -72 -132 -156 -211 -207 -42 -26 -69 -55 -101 -103 -52 -80 -96 -124 -191
-189 -45 -31 -90 -73 -120 -113 -50 -66 -132 -138 -204 -178 l-41 -23 -63 63
c-45 45 -70 80 -87 123 l-24 60 -5 8985 -5 8985 -24 45 c-13 25 -37 64 -54 88
l-30 42 -3191 0 c-3432 0 -3296 -2 -3626 51 -119 19 -197 22 -670 29 -709 11
-5827 44 -8515 55 l-1380 5 -46 -22z m8741 -1171 c8 -2 21 -6 28 -10 6 -5 12
-4 12 1 0 6 13 6 35 -1 19 -6 35 -16 35 -23 0 -8 -6 -11 -15 -8 -8 4 -15 1
-15 -5 0 -6 -10 -11 -23 -11 -13 0 -28 -5 -35 -12 -7 -7 -12 -8 -12 -2 0 5 -4
3 -9 -4 -4 -7 -18 -14 -29 -15 -12 -1 -22 -5 -22 -9 0 -4 -7 -8 -15 -8 -8 0
-15 -5 -15 -11 0 -5 -4 -8 -9 -4 -5 3 -12 1 -16 -5 -4 -6 -11 -8 -16 -5 -5 4
-9 1 -9 -4 0 -6 -7 -11 -15 -11 -8 0 -15 -6 -15 -13 0 -22 -65 -83 -110 -103
-60 -27 -84 -34 -135 -40 -66 -8 -93 -33 -144 -136 -40 -81 -79 -114 -159
-138 -76 -21 -175 -85 -191 -122 -40 -89 -237 -218 -394 -257 l-69 -17 -19
-53 c-33 -95 -85 -153 -154 -173 -22 -6 -44 -13 -50 -14 -5 -2 -28 -7 -50 -12
-66 -14 -89 -36 -119 -112 -33 -83 -86 -131 -174 -156 -85 -25 -158 -76 -186
-132 -29 -57 -64 -91 -131 -127 -27 -14 -72 -39 -100 -55 -27 -16 -81 -39
-120 -51 -82 -26 -117 -54 -140 -115 -32 -85 -99 -134 -216 -160 -76 -17 -129
-45 -129 -69 0 -26 -42 -110 -68 -138 -29 -30 -89 -60 -143 -72 -60 -13 -132
-67 -158 -119 -32 -61 -72 -100 -141 -138 -30 -16 -77 -42 -105 -58 -27 -16
-53 -27 -56 -24 -4 2 -10 0 -13 -5 -4 -5 -30 -17 -59 -25 -58 -17 -105 -60
-128 -116 -7 -19 -32 -54 -55 -76 -42 -42 -96 -65 -192 -80 -55 -9 -88 -35
-96 -76 -3 -18 -20 -57 -36 -85 -33 -57 -71 -83 -164 -110 -78 -23 -154 -73
-161 -106 -12 -50 -78 -121 -141 -152 -33 -16 -75 -38 -94 -50 -19 -12 -68
-33 -107 -48 -51 -19 -86 -40 -118 -70 -25 -24 -45 -47 -45 -51 0 -4 -13 -26
-29 -50 -35 -50 -100 -87 -196 -110 -89 -22 -110 -36 -125 -83 -38 -118 -92
-170 -207 -200 -81 -21 -137 -63 -158 -117 -27 -71 -84 -116 -241 -190 -78
-36 -144 -66 -147 -66 -12 0 -118 -113 -132 -139 -28 -55 -128 -110 -230 -127
-61 -10 -82 -28 -106 -95 -35 -94 -87 -144 -185 -175 -94 -30 -164 -69 -164
-91 0 -23 -44 -94 -75 -121 -14 -13 -43 -31 -63 -41 -20 -10 -77 -38 -127 -63
-49 -25 -101 -49 -115 -53 -25 -8 -100 -80 -100 -97 0 -4 -5 -7 -11 -6 -6 2
-20 -13 -31 -32 -11 -19 -29 -44 -41 -56 -35 -32 -127 -73 -211 -93 -76 -18
-77 -18 -87 2 -6 11 -9 38 -6 60 6 42 31 71 105 121 23 16 59 47 78 70 87 99
112 123 142 135 18 8 32 17 32 22 0 5 8 9 18 9 11 0 27 9 37 20 10 11 22 17
26 14 5 -3 9 0 9 5 0 6 9 11 21 11 11 0 17 5 14 10 -3 6 2 10 12 10 10 1 29
14 43 30 13 17 27 30 31 30 4 0 30 21 57 48 66 63 102 92 113 92 5 0 9 4 9 8
0 5 19 19 43 32 23 13 48 30 55 37 13 12 27 16 36 11 2 -2 13 6 25 16 12 11
21 16 21 12 0 -3 12 0 28 8 30 15 112 99 112 114 0 20 141 126 175 132 47 9
154 96 226 186 29 36 97 84 119 84 8 0 28 11 44 25 27 23 40 29 59 26 4 0 7 3
7 8 0 5 32 32 70 61 39 29 70 58 70 66 0 8 7 14 15 14 8 0 25 12 38 26 12 14
42 40 67 57 25 17 47 34 50 37 3 4 15 11 28 15 13 4 21 9 18 12 -3 3 24 20 59
38 35 17 71 38 80 45 8 7 15 10 15 6 0 -3 9 2 20 11 11 10 20 26 20 36 0 10 5
15 11 12 6 -4 13 2 16 14 3 12 9 21 14 21 5 0 8 4 7 9 -2 5 0 9 5 10 4 1 16 9
26 19 35 31 47 39 69 46 12 4 22 12 22 17 0 5 6 9 14 9 7 0 33 11 58 24 71 38
104 67 177 157 32 39 64 64 114 89 38 19 78 43 90 53 11 9 26 17 34 17 7 0 13
5 13 10 0 6 5 10 11 10 11 0 30 17 129 113 33 31 64 57 70 57 5 0 10 5 10 10
0 6 7 10 15 10 8 0 15 5 15 10 0 6 6 10 14 10 7 0 20 9 27 19 8 11 55 40 104
66 50 26 102 60 118 76 15 16 27 26 27 22 0 -5 8 7 17 25 8 18 18 31 20 28 3
-2 23 15 46 37 40 40 118 84 162 93 11 2 21 8 23 14 2 5 8 10 14 10 6 0 24 14
40 30 15 17 32 30 37 30 5 0 15 12 22 28 7 15 36 47 65 72 30 25 60 51 68 58
8 6 22 12 30 12 9 0 24 8 34 18 9 9 28 22 42 29 31 14 87 62 154 132 60 63
116 101 285 197 83 47 130 80 139 97 7 14 29 39 50 57 20 17 47 40 58 51 12
10 27 19 33 19 7 0 10 4 6 9 -4 8 22 23 45 26 3 0 10 3 15 6 6 4 21 9 35 12
29 7 118 86 155 136 14 19 25 31 25 26 0 -4 10 3 23 16 36 38 90 79 103 79 7
0 14 3 16 8 2 4 35 26 73 49 39 23 90 62 115 88 25 25 54 56 65 67 27 28 150
108 266 174 73 41 110 70 150 117 53 61 87 92 102 92 4 0 11 5 15 12 4 7 43
28 85 48 78 36 114 67 210 179 35 40 67 64 115 87 96 45 171 101 235 172 43
49 90 84 226 166 123 76 191 125 246 178 41 40 82 73 90 73 8 0 15 4 15 10 0
11 91 59 124 66 11 2 22 8 24 14 2 5 9 10 16 10 18 0 96 69 96 86 0 8 3 13 8
12 4 0 14 2 22 6 58 26 200 36 300 23z"/>
<path d="M73019 73326 c-54 -42 -81 -72 -129 -140 -14 -20 -69 -66 -123 -102
-61 -42 -127 -98 -180 -154 -45 -49 -136 -130 -202 -181 -66 -50 -169 -140
-230 -199 -114 -110 -180 -163 -252 -199 -27 -13 -54 -39 -77 -73 -54 -81
-113 -134 -211 -186 -77 -41 -93 -54 -118 -97 -45 -79 -123 -152 -202 -190
-76 -36 -108 -65 -148 -136 -34 -59 -91 -111 -166 -149 -79 -39 -123 -79 -159
-143 -37 -65 -71 -96 -146 -137 -78 -42 -154 -106 -176 -150 -23 -45 -82 -103
-141 -138 -77 -45 -144 -104 -195 -171 -26 -34 -73 -80 -104 -101 -92 -62
-221 -167 -244 -198 -11 -16 -37 -42 -56 -58 -19 -15 -57 -49 -85 -74 -27 -25
-91 -74 -141 -107 -67 -45 -102 -78 -138 -126 -59 -81 -108 -121 -211 -172
-75 -38 -82 -44 -112 -100 -41 -78 -106 -136 -201 -181 -97 -45 -107 -54 -139
-126 -32 -72 -85 -121 -172 -160 -73 -33 -126 -78 -145 -123 -29 -66 -91 -129
-162 -164 -93 -45 -140 -84 -169 -140 -35 -66 -86 -116 -156 -152 -65 -32
-152 -113 -206 -192 -19 -26 -54 -58 -80 -73 -27 -15 -52 -32 -58 -38 -5 -6
-40 -35 -77 -65 -37 -30 -78 -71 -92 -91 -14 -21 -44 -53 -67 -71 -22 -19 -69
-57 -103 -84 -33 -28 -81 -65 -106 -82 -25 -17 -86 -72 -135 -123 -104 -106
-175 -162 -248 -195 -55 -24 -74 -41 -97 -89 -30 -60 -107 -132 -177 -165
-113 -53 -117 -55 -133 -86 -67 -130 -115 -176 -229 -220 -73 -28 -105 -54
-115 -97 -15 -66 -114 -160 -196 -188 -53 -18 -140 -90 -140 -116 0 -19 -41
-83 -72 -111 -13 -12 -53 -35 -88 -52 -81 -37 -140 -87 -175 -148 -39 -67 -72
-101 -130 -130 -50 -26 -145 -95 -178 -129 -9 -11 -35 -43 -58 -72 -22 -29
-62 -67 -88 -85 -120 -81 -225 -167 -337 -276 -98 -97 -134 -125 -196 -155
-82 -39 -92 -49 -132 -117 -14 -25 -43 -63 -63 -83 -40 -40 -140 -96 -170 -96
-33 0 -62 -30 -94 -93 -16 -34 -47 -79 -67 -101 -34 -36 -141 -96 -170 -96
-29 0 -65 -37 -91 -94 -36 -78 -87 -126 -181 -170 -92 -43 -120 -67 -153 -131
-34 -68 -79 -111 -152 -146 -75 -36 -158 -104 -179 -146 -25 -52 -86 -113
-139 -140 -73 -36 -167 -115 -211 -176 -22 -30 -69 -75 -105 -101 -168 -120
-204 -148 -314 -257 -99 -97 -133 -123 -215 -167 -88 -46 -100 -56 -120 -97
-38 -78 -102 -137 -194 -179 -46 -21 -90 -41 -98 -45 -8 -4 -30 -36 -47 -72
-44 -86 -111 -148 -195 -177 -71 -25 -115 -63 -142 -123 -31 -67 -84 -117
-163 -155 -92 -45 -137 -83 -168 -144 -30 -60 -86 -110 -166 -149 -77 -37
-146 -99 -183 -163 -27 -48 -106 -118 -134 -118 -22 0 -144 -102 -189 -157
-53 -67 -43 -58 -203 -177 -80 -60 -181 -145 -225 -189 -93 -93 -176 -157
-257 -198 -43 -22 -63 -39 -77 -67 -30 -60 -141 -156 -224 -197 -81 -38 -95
-51 -125 -110 -28 -57 -112 -131 -185 -166 -35 -16 -78 -44 -96 -63 l-32 -33
20 -89 c49 -211 49 -211 102 -245 27 -17 62 -47 77 -68 32 -41 85 -139 101
-188 15 -50 59 -101 117 -138 62 -40 93 -78 140 -176 46 -94 93 -159 164 -229
88 -87 165 -201 200 -299 32 -89 41 -102 112 -151 80 -54 119 -104 154 -196
32 -85 85 -159 133 -183 61 -32 96 -79 186 -246 78 -145 94 -167 169 -240 85
-82 130 -152 157 -245 17 -63 52 -106 107 -134 74 -38 131 -109 157 -196 11
-35 112 -190 125 -190 18 0 91 -73 130 -130 48 -71 97 -168 125 -250 19 -52
30 -69 57 -84 114 -64 155 -111 189 -215 32 -95 73 -155 123 -181 48 -24 124
-102 142 -145 35 -86 129 -239 173 -284 136 -136 171 -188 207 -306 21 -71 43
-99 105 -130 72 -37 104 -80 163 -215 26 -62 89 -150 124 -174 21 -14 52 -41
68 -59 57 -60 171 -276 198 -373 4 -11 21 -25 39 -32 43 -15 112 -75 141 -121
13 -20 33 -67 46 -106 26 -79 67 -138 114 -162 76 -39 101 -70 172 -210 50
-100 81 -151 115 -184 134 -131 228 -275 244 -372 10 -58 30 -84 84 -108 25
-11 63 -37 85 -57 36 -35 96 -141 96 -170 0 -30 88 -149 122 -165 62 -29 104
-85 182 -241 41 -83 78 -163 81 -178 5 -19 22 -34 65 -57 83 -44 135 -113 169
-226 27 -88 56 -125 142 -182 66 -44 105 -92 124 -151 13 -45 116 -216 138
-231 12 -9 36 -30 52 -48 17 -19 47 -52 68 -75 46 -49 87 -128 116 -222 26
-85 29 -88 103 -128 75 -40 119 -93 151 -185 34 -94 88 -175 131 -195 46 -22
82 -62 127 -138 42 -70 135 -254 143 -282 3 -10 27 -33 52 -50 26 -18 62 -45
79 -60 38 -32 115 -178 115 -216 0 -35 52 -98 94 -116 70 -29 143 -121 171
-216 13 -46 98 -165 139 -195 78 -59 164 -193 212 -330 34 -98 36 -101 95
-127 27 -11 65 -38 85 -60 36 -40 94 -150 94 -178 0 -28 82 -137 117 -156 63
-33 115 -105 200 -275 58 -116 91 -171 114 -189 112 -87 141 -127 179 -245 29
-89 63 -136 118 -165 62 -34 104 -88 168 -218 44 -90 71 -129 121 -181 118
-121 201 -249 234 -361 19 -66 35 -86 93 -119 29 -16 67 -46 85 -67 35 -39 81
-127 81 -155 0 -30 86 -140 136 -173 60 -40 77 -65 189 -274 64 -119 97 -170
123 -190 20 -15 51 -43 69 -62 34 -36 113 -181 113 -207 0 -29 63 -105 114
-138 65 -41 89 -73 155 -205 60 -120 73 -139 167 -236 80 -83 122 -148 173
-273 43 -105 48 -112 121 -161 65 -44 95 -85 145 -193 41 -92 89 -157 142
-196 21 -16 48 -39 60 -52 27 -30 109 -173 173 -299 33 -65 57 -100 75 -110
55 -29 131 -125 164 -207 52 -127 71 -153 149 -207 56 -38 93 -86 130 -167 41
-91 104 -183 171 -249 75 -74 145 -181 194 -297 31 -73 49 -101 80 -126 100
-80 128 -112 158 -176 70 -152 98 -192 176 -251 54 -41 68 -63 193 -288 49
-89 80 -130 144 -195 47 -46 92 -102 103 -127 78 -169 85 -180 130 -217 92
-75 130 -121 167 -199 46 -96 126 -213 166 -242 47 -35 128 -157 191 -289 53
-110 64 -126 112 -161 77 -58 114 -104 162 -206 23 -50 59 -111 80 -134 37
-43 39 -44 84 -37 81 12 138 43 171 93 l30 45 0 861 c0 474 -4 1266 -10 1761
-5 495 -14 1557 -20 2360 -6 803 -17 2128 -24 2945 -19 2170 -21 3214 -21
9850 0 6218 3 7291 29 9735 14 1290 36 4257 36 4815 l0 211 -37 40 c-25 26
-57 46 -93 58 -102 34 -101 34 -161 -13z"/>
<path d="M164615 17405 c0 -1045 1 -1471 2 -947 2 525 2 1380 0 1900 -1 521
-2 92 -2 -953z"/>
<path d="M6610 11675 l0 -6895 1040 0 1040 0 0 2083 0 2083 833 1148 c457 631
836 1148 841 1148 5 0 644 -1454 1420 -3231 l1410 -3231 1338 0 c736 0 1338 3
1338 7 0 4 -916 1898 -2036 4210 l-2035 4204 23 32 c12 17 881 1221 1929 2674
1049 1453 1910 2647 1914 2653 4 7 -426 10 -1387 10 l-1393 0 -2090 -3046
c-1149 -1675 -2093 -3048 -2097 -3050 -4 -3 -8 1368 -8 3045 l0 3051 -1040 0
-1040 0 0 -6895z"/>
<path d="M64020 17350 l0 -1220 980 0 980 0 0 1220 0 1220 -980 0 -980 0 0
-1220z"/>
<path d="M72040 11675 l0 -6895 1040 0 1040 0 0 2086 0 2085 833 1149 c457
632 834 1149 837 1150 3 0 641 -1455 1417 -3232 l1411 -3233 1342 -3 c1073 -2
1341 0 1337 10 -3 7 -919 1900 -2036 4206 -1117 2305 -2031 4196 -2031 4202 0
7 3591 4990 3832 5318 l39 52 -1395 0 -1394 0 -2093 -3051 -2094 -3050 -3
3050 -2 3051 -1040 0 -1040 0 0 -6895z"/>
<path d="M143830 11675 l0 -6896 2198 4 c2306 4 2257 3 2582 47 358 48 677
127 926 231 510 212 990 547 1316 917 486 551 890 1343 1163 2282 231 794 340
1485 397 2520 15 289 15 1279 0 1600 -33 660 -84 1182 -163 1660 -282 1710
-967 3083 -1909 3826 -255 201 -606 391 -897 487 -306 100 -557 146 -1098 199
-86 8 -737 12 -2317 15 l-2198 4 0 -6896z m3745 4555 c670 -32 951 -85 1260
-235 402 -195 702 -509 929 -970 391 -795 543 -1836 523 -3585 -13 -1125 -84
-1817 -254 -2485 -150 -592 -329 -972 -583 -1238 -291 -305 -613 -474 -1040
-547 -296 -50 -359 -53 -1462 -57 l-1038 -4 0 4565 0 4566 728 0 c400 0 822
-5 937 -10z"/>
<path d="M165350 17350 l0 -1220 985 0 985 0 0 1220 0 1220 -985 0 -985 0 0
-1220z"/>
<path d="M173370 11675 l0 -6895 1040 0 1040 0 0 2084 0 2084 811 1118 c446
616 823 1134 837 1153 l25 34 17 -34 c10 -19 646 -1475 1415 -3236 l1398
-3203 1338 0 c737 0 1339 2 1339 5 0 3 -914 1892 -2031 4198 -1118 2305 -2032
4201 -2033 4212 0 12 817 1152 1923 2685 1058 1466 1928 2671 1934 2678 7 9
-271 12 -1385 12 l-1393 0 -2095 -3052 -2095 -3052 -3 3052 -2 3052 -1040 0
-1040 0 0 -6895z"/>
<path d="M20095 14983 c-252 -20 -421 -47 -619 -98 -781 -201 -1462 -685
-1967 -1397 -483 -681 -857 -1727 -978 -2738 -40 -333 -46 -446 -46 -905 1
-690 44 -1190 151 -1740 321 -1649 1099 -2741 2345 -3289 347 -153 706 -245
1078 -277 175 -14 537 -7 701 16 698 94 1285 384 1814 895 653 631 1152 1551
1390 2560 205 871 249 1934 120 2887 -126 937 -424 1757 -894 2458 -289 432
-665 824 -1030 1074 -477 327 -984 504 -1579 550 -124 10 -389 12 -486 4z
m455 -2168 c329 -54 640 -244 890 -543 402 -481 613 -1106 680 -2017 15 -195
15 -755 0 -965 -62 -902 -268 -1537 -655 -2015 -346 -427 -781 -629 -1262
-585 -402 36 -744 232 -1036 595 -377 468 -574 1053 -649 1930 -19 228 -16
913 5 1145 67 720 226 1255 493 1664 299 455 649 715 1069 790 109 19 347 20
465 1z"/>
<path d="M29575 14978 c-245 -24 -505 -100 -734 -213 -515 -256 -943 -693
-1274 -1300 l-77 -140 -2 725 -3 725 -917 3 -918 2 0 -6900 0 -6900 980 0 980
0 2 2502 3 2503 94 -130 c533 -735 1003 -1117 1546 -1258 208 -54 272 -61 540
-61 266 0 345 8 545 59 537 136 1023 478 1440 1014 650 835 997 1897 1106
3381 21 296 30 1032 15 1345 -54 1150 -253 2055 -617 2800 -276 567 -674 1071
-1094 1386 -473 354 -1041 515 -1615 457z m-126 -2083 c299 -49 567 -217 795
-498 277 -343 452 -768 550 -1337 61 -349 85 -646 93 -1115 19 -1172 -132
-2042 -442 -2559 -254 -423 -576 -676 -943 -741 -102 -19 -309 -19 -414 0
-533 93 -1012 604 -1253 1340 -160 486 -232 1019 -242 1787 -8 624 18 985 103
1408 162 813 569 1425 1090 1638 204 84 447 112 663 77z"/>
<path d="M37060 14979 c-648 -57 -1222 -331 -1710 -819 -675 -674 -1113 -1605
-1315 -2795 -91 -539 -128 -1019 -128 -1675 0 -510 19 -849 74 -1275 143
-1121 504 -2083 1033 -2750 112 -141 330 -360 471 -474 440 -355 941 -559
1560 -638 202 -25 716 -25 905 0 687 93 1232 356 1690 817 469 470 821 1121
1063 1960 25 85 42 158 39 161 -7 6 -1929 440 -1948 439 -6 0 -24 -53 -39
-117 -36 -154 -106 -370 -162 -502 -178 -420 -440 -675 -789 -768 -88 -23
-118 -26 -269 -27 -182 -1 -266 12 -406 59 -283 97 -542 314 -756 635 -260
392 -417 965 -440 1613 l-6 177 2461 0 2462 0 0 299 c0 1322 -169 2489 -480
3326 -232 623 -514 1077 -920 1486 -242 244 -421 382 -685 528 -480 265 -1116
391 -1705 340z m515 -2020 c176 -22 358 -92 503 -196 205 -145 427 -425 546
-686 158 -346 259 -847 268 -1332 l3 -130 -1465 0 -1465 0 2 181 c3 294 39
582 108 849 134 524 420 952 781 1168 207 124 466 177 719 146z"/>
<path d="M45695 14974 c-563 -87 -929 -458 -1402 -1419 l-93 -190 0 708 0 707
-910 0 -910 0 0 -5000 0 -5000 980 0 980 0 0 1848 c0 2181 11 2849 55 3582 41
658 94 1011 211 1404 43 143 132 367 181 456 89 160 213 304 336 388 241 166
576 207 860 105 163 -58 353 -170 522 -306 65 -53 81 -62 86 -48 14 35 599
2259 599 2274 0 36 -256 205 -465 307 -342 167 -712 234 -1030 184z"/>
<path d="M50606 14979 c-787 -50 -1407 -286 -1840 -700 -467 -446 -808 -1140
-1010 -2056 l-23 -101 61 -16 c462 -115 1710 -405 1716 -399 3 4 23 66 44 137
50 173 96 296 167 445 189 396 416 579 814 658 123 24 479 24 648 -1 495 -71
729 -241 865 -627 69 -195 97 -402 108 -786 l7 -262 -134 -65 c-359 -174 -891
-351 -1669 -555 -497 -130 -721 -200 -1020 -318 -456 -179 -765 -367 -1010
-613 -598 -600 -887 -1606 -774 -2698 65 -628 263 -1160 598 -1607 313 -416
717 -688 1201 -810 229 -58 338 -70 635 -70 233 0 281 3 393 23 717 129 1291
512 1883 1258 l32 39 11 -43 c7 -23 32 -136 56 -250 25 -114 77 -336 117 -495
l71 -287 974 0 c535 0 973 3 973 6 0 3 -27 85 -59 183 -187 557 -287 1026
-330 1551 -48 578 -53 1032 -34 3030 19 2101 13 2449 -52 3045 -86 771 -257
1195 -647 1601 -271 281 -565 472 -913 591 -461 158 -1196 234 -1859 192z
m1550 -5956 c-12 -912 -37 -1189 -133 -1482 -136 -416 -439 -775 -833 -989
-341 -185 -732 -207 -1030 -57 -273 137 -516 469 -609 830 -68 264 -69 580 -1
825 44 157 145 336 267 473 176 198 492 340 1248 562 425 125 754 235 965 321
58 24 111 43 119 44 12 0 13 -78 7 -527z"/>
<path d="M58395 14980 c-856 -63 -1467 -307 -1925 -770 -405 -409 -691 -975
-804 -1592 -79 -429 -81 -958 -6 -1393 140 -804 558 -1447 1185 -1822 493
-296 1317 -622 2400 -953 376 -114 520 -166 665 -241 199 -103 279 -184 341
-344 47 -120 62 -229 56 -400 -10 -265 -72 -440 -218 -615 -60 -73 -198 -177
-311 -235 -379 -196 -1016 -240 -1444 -99 -436 143 -744 490 -919 1034 -33
103 -83 303 -100 403 -3 20 -10 37 -15 37 -13 0 -1962 -399 -1965 -402 -5 -5
30 -169 65 -307 299 -1184 994 -2075 1925 -2465 492 -206 1027 -296 1684 -283
645 13 1130 118 1596 347 331 163 599 371 844 655 583 677 861 1494 838 2460
-15 615 -132 1094 -368 1506 -242 422 -620 745 -1234 1052 -374 187 -680 304
-1311 502 -874 274 -1398 475 -1643 632 -267 171 -373 500 -265 823 99 293
377 471 854 545 144 23 558 32 699 15 225 -26 456 -108 605 -214 256 -183 466
-540 546 -929 9 -47 15 -57 28 -53 9 3 424 107 922 231 497 124 906 228 909
230 9 10 -85 364 -149 555 -186 564 -440 1000 -782 1342 -420 420 -992 651
-1813 734 -179 17 -722 26 -890 14z"/>
<path d="M85000 14984 c-25 -2 -108 -9 -185 -15 -748 -59 -1350 -305 -1769
-723 -424 -425 -740 -1053 -936 -1861 -67 -275 -65 -262 -43 -269 28 -8 1745
-416 1752 -416 4 0 22 53 40 118 79 279 209 570 321 721 245 331 591 460 1132
423 593 -41 873 -199 1030 -584 87 -214 128 -504 128 -904 l0 -204 -107 -54
c-359 -179 -893 -358 -1708 -570 -614 -160 -992 -291 -1350 -467 -276 -136
-444 -251 -629 -429 -413 -398 -685 -973 -786 -1664 -58 -396 -52 -919 15
-1323 146 -873 625 -1617 1266 -1966 223 -121 468 -200 754 -243 143 -21 475
-29 620 -15 474 48 917 233 1343 563 143 110 483 451 612 613 57 72 106 131
110 133 4 2 10 -7 12 -20 74 -350 190 -844 234 -996 l15 -52 976 0 c776 0 974
3 969 13 -23 56 -152 461 -184 577 -125 457 -182 799 -217 1305 -39 571 -42
1087 -21 3250 13 1314 10 1814 -14 2190 -44 709 -133 1177 -284 1499 -171 366
-460 692 -832 939 -342 227 -770 353 -1398 413 -150 14 -762 27 -866 18z
m1467 -6044 c-6 -551 -13 -733 -37 -960 -34 -310 -120 -576 -259 -800 -250
-402 -672 -703 -1080 -771 -100 -17 -293 -14 -386 6 -186 39 -330 119 -476
264 -201 202 -339 473 -389 768 -74 433 0 796 224 1094 121 160 245 251 487
360 208 92 403 159 864 294 329 97 752 238 920 307 105 43 131 51 134 38 2 -8
1 -278 -2 -600z"/>
<path d="M93605 14979 c-102 -13 -238 -52 -343 -97 -391 -169 -664 -498 -1056
-1277 l-121 -240 -3 708 -2 707 -910 0 -910 0 0 -5000 0 -5000 984 0 984 0 5
2243 c3 1385 9 2343 16 2507 47 1146 95 1562 233 2045 128 446 299 729 536
888 85 57 154 88 271 124 77 24 102 26 246 27 134 0 173 -3 240 -21 202 -56
392 -158 610 -331 50 -39 91 -68 92 -64 1 4 136 511 298 1127 163 616 299
1122 301 1124 2 2 4 2 5 0 0 -2 618 -2184 1373 -4848 l1373 -4844 -33 -141
c-115 -502 -300 -973 -506 -1288 -78 -120 -226 -266 -335 -331 -211 -126 -430
-175 -738 -164 -184 6 -395 35 -604 82 -80 18 -147 32 -147 32 -1 -1 37 -464
84 -1029 l86 -1027 79 -21 c689 -186 1418 -184 1992 5 339 112 595 261 823
479 389 374 655 885 952 1831 38 121 224 789 414 1485 189 696 887 3253 1550
5683 663 2430 1206 4420 1206 4423 0 2 -458 3 -1017 2 l-1017 -3 -870 -3537
c-478 -1946 -872 -3538 -875 -3538 -3 0 -407 1592 -897 3538 l-891 3537 -1047
3 c-575 1 -1046 1 -1046 -1 0 -2 16 -59 35 -127 19 -68 33 -126 31 -128 -2 -2
-35 19 -72 47 -242 175 -503 300 -764 366 -193 49 -437 66 -615 44z"/>
<path d="M106555 14983 c-663 -40 -1156 -176 -1565 -429 -569 -352 -996 -1007
-1265 -1944 -60 -211 -121 -477 -112 -486 6 -7 1742 -424 1762 -424 6 0 25 55
44 123 71 256 182 516 292 682 125 188 305 326 519 398 143 47 255 61 490 61
496 -1 816 -101 1015 -316 135 -146 233 -407 270 -719 8 -74 18 -252 22 -396
l6 -263 -144 -69 c-364 -175 -905 -354 -1679 -555 -1464 -382 -2054 -755
-2454 -1554 -261 -521 -381 -1149 -346 -1818 40 -780 246 -1385 647 -1899 360
-461 821 -728 1423 -822 165 -25 589 -26 745 0 405 67 749 211 1099 459 258
184 524 441 753 728 48 60 90 106 94 102 4 -4 28 -104 54 -222 55 -254 135
-595 173 -735 l27 -100 976 -3 976 -2 -54 157 c-77 224 -174 567 -221 783 -92
419 -128 755 -152 1390 -17 447 -17 538 -1 2457 16 1896 13 2249 -24 2718 -69
874 -191 1291 -499 1705 -192 258 -522 537 -800 677 -354 178 -810 279 -1416
313 -160 9 -533 11 -655 3z m1472 -5980 c-13 -1066 -49 -1328 -232 -1698 -84
-169 -174 -293 -310 -431 -311 -314 -659 -476 -1020 -476 -270 0 -463 77 -655
259 -113 107 -197 222 -273 371 -125 244 -175 488 -164 792 13 335 119 596
334 821 177 185 481 323 1133 515 515 152 828 255 1058 349 59 24 113 44 121
44 12 1 13 -79 8 -546z"/>
<path d="M125705 14984 c-235 -18 -332 -28 -472 -50 -667 -103 -1188 -360
-1556 -769 -355 -394 -618 -910 -811 -1591 -46 -165 -110 -443 -103 -450 5 -6
1659 -403 1743 -420 l31 -6 23 89 c50 190 145 440 223 583 248 458 617 635
1239 592 337 -23 567 -85 734 -199 295 -201 424 -598 424 -1305 l0 -188 -117
-59 c-336 -168 -927 -364 -1698 -565 -802 -208 -1286 -396 -1675 -650 -496
-325 -848 -862 -1024 -1562 -29 -115 -69 -339 -88 -494 -18 -144 -18 -765 0
-925 81 -722 327 -1308 746 -1777 417 -467 990 -707 1686 -708 584 0 1114 195
1615 595 185 147 539 516 672 700 12 16 24 28 26 25 3 -3 28 -113 57 -245 51
-238 155 -672 185 -772 l16 -53 974 0 973 0 -60 178 c-149 443 -253 873 -303
1261 -73 568 -82 1175 -61 4126 9 1294 5 1524 -30 1965 -39 495 -107 881 -200
1138 -103 285 -283 562 -513 789 -453 448 -954 652 -1788 729 -157 14 -755 27
-868 18z m1475 -5831 c0 -658 -25 -1129 -71 -1368 -81 -422 -280 -763 -604
-1033 -284 -238 -575 -354 -885 -354 -283 0 -507 95 -698 297 -276 291 -418
692 -399 1125 15 342 142 640 364 852 184 174 502 309 1268 533 325 96 689
217 865 288 74 30 141 55 148 56 9 1 12 -85 12 -396z"/>
<path d="M135070 14979 c-143 -14 -370 -63 -510 -109 -141 -47 -383 -160 -510
-240 -292 -182 -578 -447 -825 -765 -94 -120 -256 -357 -326 -475 l-44 -75 -3
733 -2 732 -910 0 -910 0 0 -5000 0 -5000 979 0 980 0 4 2658 c5 2574 7 2783
37 3252 33 524 96 899 195 1166 164 442 462 791 830 974 406 201 864 181 1180
-52 286 -211 481 -582 549 -1043 20 -135 43 -389 56 -620 24 -432 30 -1131 30
-3667 l0 -2668 980 0 981 0 -4 3483 c-4 3553 -4 3563 -42 3992 -42 471 -117
833 -242 1169 -61 164 -187 418 -270 546 -346 528 -941 897 -1608 996 -123 19
-467 26 -595 13z"/>
<path d="M186320 14983 c-36 -2 -137 -10 -225 -19 -602 -59 -1092 -228 -1473
-508 -123 -90 -356 -320 -454 -446 -319 -414 -563 -959 -723 -1615 -72 -298
-68 -273 -48 -279 74 -21 1755 -417 1758 -414 2 2 26 78 54 168 112 372 233
608 400 782 233 245 559 342 1033 310 293 -20 460 -57 633 -142 122 -59 203
-123 273 -215 178 -236 257 -593 250 -1120 l-3 -220 -115 -57 c-338 -167 -864
-343 -1635 -547 -449 -118 -658 -180 -895 -266 -873 -317 -1308 -672 -1630
-1330 -194 -395 -296 -798 -331 -1300 -14 -205 -6 -571 16 -770 75 -657 291
-1202 652 -1650 89 -111 275 -296 368 -366 294 -224 630 -363 1025 -424 163
-25 496 -31 664 -11 720 84 1340 464 1924 1180 92 112 107 126 113 108 4 -12
31 -128 59 -259 43 -197 133 -569 181 -750 l11 -43 974 0 c536 0 974 1 974 3
0 1 -25 77 -55 167 -200 596 -296 1053 -339 1615 -47 600 -52 1123 -32 3130
17 1716 14 2029 -20 2525 -28 410 -75 751 -139 1005 -137 545 -463 991 -970
1329 -372 248 -897 387 -1610 426 -165 9 -507 10 -665 3z m1477 -6050 c-9
-1018 -42 -1257 -227 -1628 -218 -438 -649 -790 -1084 -885 -150 -33 -359 -30
-499 6 -80 20 -207 80 -288 135 -189 127 -383 399 -470 659 -104 313 -112 694
-18 972 52 155 126 283 243 420 173 202 480 343 1246 569 377 111 773 243 945
313 72 29 136 54 144 55 11 1 13 -98 8 -616z"/>
<path d="M194942 14979 c-218 -28 -436 -119 -624 -260 -246 -184 -507 -561
-800 -1153 l-98 -199 -2 704 -3 704 -907 3 -908 2 0 -5000 0 -5000 979 0 979
0 5 2203 c3 1306 9 2312 16 2472 47 1187 90 1591 222 2071 158 576 379 891
724 1029 207 82 462 86 678 8 162 -58 364 -178 548 -327 l56 -45 100 377 c55
207 190 716 299 1129 109 414 201 753 204 753 3 0 623 -2182 1377 -4848 l1372
-4847 -34 -145 c-147 -630 -391 -1187 -627 -1436 -223 -235 -501 -344 -879
-344 -199 0 -479 37 -714 94 -55 13 -102 22 -104 20 -3 -3 33 -464 80 -1025
64 -772 88 -1022 98 -1029 22 -13 294 -77 421 -99 251 -43 396 -55 675 -55
332 0 518 20 775 84 340 85 662 240 895 430 104 85 290 282 375 398 261 356
497 891 728 1652 44 145 3132 11454 3132 11470 0 6 -367 10 -1015 10 l-1014 0
-10 -36 c-5 -19 -398 -1615 -873 -3545 -558 -2273 -865 -3504 -870 -3492 -4
10 -406 1602 -894 3538 -487 1936 -888 3523 -891 3528 -2 4 -475 7 -1050 7
-832 0 -1044 -3 -1040 -12 13 -37 68 -240 65 -244 -2 -2 -42 24 -88 56 -431
308 -931 455 -1358 399z"/>
<path d="M207885 14984 c-352 -27 -556 -55 -773 -109 -492 -121 -876 -327
-1182 -635 -391 -394 -683 -947 -884 -1672 -55 -199 -110 -437 -103 -445 6 -5
1750 -423 1766 -423 5 0 15 24 21 53 46 195 172 515 265 672 247 420 621 583
1232 536 477 -37 750 -158 911 -405 152 -232 222 -575 222 -1093 l0 -193 -118
-59 c-315 -158 -880 -350 -1536 -522 -578 -152 -818 -223 -1094 -328 -382
-145 -697 -314 -912 -488 -92 -75 -250 -234 -325 -328 -352 -438 -573 -1049
-625 -1727 -18 -227 -8 -686 20 -888 91 -678 315 -1203 708 -1661 296 -345
714 -591 1162 -684 237 -49 569 -68 795 -46 610 61 1173 353 1681 872 126 130
317 349 360 414 9 14 20 25 24 25 4 0 16 -44 28 -97 94 -431 120 -542 163
-713 27 -107 54 -210 60 -228 l11 -32 973 0 974 0 -60 178 c-192 570 -289
1025 -333 1562 -45 541 -50 1182 -32 3815 6 935 5 1357 -3 1535 -27 590 -74
996 -153 1325 -96 405 -285 743 -579 1035 -457 455 -954 658 -1799 736 -154
14 -753 27 -865 18z m1475 -5841 c0 -606 -19 -1021 -56 -1278 -55 -380 -215
-710 -472 -977 -307 -318 -668 -490 -1032 -490 -279 0 -483 84 -681 281 -186
187 -321 438 -377 701 -111 516 9 990 325 1292 117 111 302 210 603 321 175
65 267 94 715 227 308 91 644 204 815 273 74 30 141 55 148 56 9 1 12 -87 12
-406z"/>
<path d="M64020 9780 l0 -5000 980 0 980 0 0 5000 0 5000 -980 0 -980 0 0
-5000z"/>
<path d="M110935 14753 c12 -47 2325 -9875 2336 -9925 l11 -48 958 0 958 0 6
27 c3 16 285 1452 626 3193 341 1741 624 3173 628 3183 4 11 148 -689 359
-1750 194 -972 481 -2417 639 -3211 l287 -1442 945 2 946 3 1193 4985 c656
2742 1192 4991 1193 4998 0 9 -200 12 -968 12 l-968 0 -709 -3270 c-391 -1798
-712 -3270 -715 -3270 -3 0 -281 1464 -619 3253 -337 1788 -615 3260 -617
3270 -5 16 -59 17 -953 17 l-948 0 -11 -57 c-90 -465 -1265 -6454 -1270 -6471
-5 -16 -232 1031 -700 3235 -381 1792 -696 3266 -698 3276 -5 16 -59 17 -961
17 l-955 0 7 -27z"/>
<path d="M153210 14773 c0 -6 2318 -9855 2342 -9951 l10 -42 958 0 958 0 24
128 c116 607 1234 6282 1238 6282 3 0 288 -1421 634 -3157 345 -1737 632
-3179 638 -3206 l10 -47 943 0 944 0 10 38 c16 60 2381 9949 2381 9956 0 3
-436 6 -970 6 -533 0 -970 -3 -970 -6 0 -13 -1412 -6511 -1418 -6527 -4 -10
-262 1335 -620 3235 -338 1789 -616 3263 -619 3276 l-5 22 -948 0 -949 0 -10
-52 c-6 -29 -294 -1502 -641 -3273 -347 -1770 -632 -3221 -634 -3223 -2 -1 -6
10 -9 25 -6 30 -1358 6380 -1377 6471 l-12 52 -954 0 c-525 0 -954 -3 -954 -7z"/>
<path d="M165350 9780 l0 -5000 985 0 985 0 -2 4998 -3 4997 -982 3 -983 2 0
-5000z"/>
<path d="M164615 8485 c0 -2442 1 -3440 2 -2217 2 1223 2 3221 0 4440 -1 1219
-2 219 -2 -2223z"/>
</g>
</svg>
